<svg id="fa-house" xmlns="http://www.w3.org/2000/svg" xmlns:xlink="http://www.w3.org/1999/xlink" width="17.875" height="15.889" viewBox="0 0 17.875 15.889">
  <defs>
    <clipPath id="clip-path">
      <rect id="Rectangle_6801" data-name="Rectangle 6801" width="17.875" height="15.889" fill="#7b7b7b"/>
    </clipPath>
  </defs>
  <g id="Group_47425" data-name="Group 47425" clip-path="url(#clip-path)">
    <path id="Path_100020" data-name="Path 100020" d="M17.869,7.929a1,1,0,0,1-.993,1h-.993l.022,4.969a2.231,2.231,0,0,1-.016.251v.5a1.241,1.241,0,0,1-1.241,1.241h-.5c-.034,0-.068-.028-.1,0-.043-.025-.087,0-.13,0H12.165a1.241,1.241,0,0,1-1.241-1.241V11.917a.992.992,0,0,0-.993-.993H7.945a.992.992,0,0,0-.993.993v2.731A1.241,1.241,0,0,1,5.71,15.889H3.975c-.047,0-.093,0-.14-.006s-.074.006-.112.006h-.5a1.241,1.241,0,0,1-1.241-1.241V11.172c0-.028,0-.059,0-.087V8.925H.995a.984.984,0,0,1-.995-1,1.008,1.008,0,0,1,.311-.745L8.267.249A.894.894,0,0,1,8.95,0,1.044,1.044,0,0,1,9.6.218l7.923,6.967a.843.843,0,0,1,.341.745" fill="#7b7b7b"/>
  </g>
</svg>
