<svg xmlns="http://www.w3.org/2000/svg" width="3887" height="3884" viewBox="0 0 3887 3884" version="1.1"><path d="M 1915.500 661.706 C 1827.738 666.508, 1738.467 698.025, 1665.821 749.854 C 1636.697 770.633, 1598.567 805.778, 1577.445 831.313 C 1510.299 912.484, 1473.234 1004.610, 1465.924 1108.500 C 1464.458 1129.334, 1465.253 1170.832, 1467.495 1190.500 C 1472.475 1234.187, 1482.912 1276.396, 1498.650 1316.500 C 1505.966 1335.141, 1522.831 1369.232, 1533.157 1386.251 C 1603.333 1501.918, 1716.592 1582.003, 1848 1608.877 C 1917.177 1623.024, 1989.567 1621.520, 2058.500 1604.504 C 2178.825 1574.800, 2283.362 1499.129, 2349.306 1394 C 2390.694 1328.018, 2414.566 1255.364, 2421.098 1175.500 C 2422.619 1156.909, 2421.715 1103.871, 2419.581 1086.500 C 2414.230 1042.932, 2403.642 1000.667, 2388.518 962.500 C 2382.530 947.387, 2367.325 915.915, 2359.048 901.500 C 2337.352 863.716, 2311.068 830.043, 2277.855 797.483 C 2195.990 717.227, 2091.609 670.463, 1975.500 662.025 C 1962.644 661.091, 1929.924 660.917, 1915.500 661.706 M 2567.250 1405.750 C 2591.313 1405.899, 2630.688 1405.899, 2654.750 1405.750 C 2678.813 1405.601, 2659.125 1405.478, 2611 1405.478 C 2562.875 1405.478, 2543.188 1405.601, 2567.250 1405.750 M 1182.825 1407.750 C 1207.204 1407.899, 1246.804 1407.899, 1270.825 1407.750 C 1294.846 1407.600, 1274.900 1407.478, 1226.500 1407.479 C 1178.100 1407.479, 1158.446 1407.601, 1182.825 1407.750 M 1464.249 1992.750 L 1464.500 2578.500 1942.781 2578.751 C 2324.882 2578.952, 2421.157 2578.750, 2421.537 2577.751 C 2421.798 2577.063, 2421.896 2313.721, 2421.756 1992.547 L 2421.500 1408.594 2414.067 1421.047 C 2380.782 1476.806, 2334.678 1529.255, 2283 1570.150 C 2138.581 1684.435, 1944.819 1718.152, 1769.500 1659.506 C 1644.895 1617.824, 1540.150 1533.015, 1471.532 1418.250 C 1467.833 1412.063, 1464.624 1407, 1464.402 1407 C 1464.180 1407, 1464.111 1670.588, 1464.249 1992.750 M 2506.478 1758 C 2506.478 1806.125, 2506.601 1825.813, 2506.750 1801.750 C 2506.899 1777.688, 2506.899 1738.313, 2506.750 1714.250 C 2506.601 1690.188, 2506.478 1709.875, 2506.478 1758 M 162.428 1941 C 162.428 1953.375, 162.571 1958.438, 162.747 1952.250 C 162.922 1946.063, 162.922 1935.938, 162.747 1929.750 C 162.571 1923.563, 162.428 1928.625, 162.428 1941 M 1373.478 2039 C 1373.478 2087.125, 1373.601 2106.813, 1373.750 2082.750 C 1373.899 2058.688, 1373.899 2019.313, 1373.750 1995.250 C 1373.601 1971.188, 1373.478 1990.875, 1373.478 2039 M 2507.478 2455 C 2507.478 2503.125, 2507.601 2522.813, 2507.750 2498.750 C 2507.899 2474.688, 2507.899 2435.313, 2507.750 2411.250 C 2507.601 2387.188, 2507.478 2406.875, 2507.478 2455 M 1374.439 2657.500 L 1374.500 2665.500 1420.250 2665.515 L 1466 2665.531 1420.540 2665.255 L 1375.081 2664.980 1374.730 2657.240 L 1374.379 2649.500 1374.439 2657.500 M 2029.250 2664.750 C 2053.313 2664.899, 2092.688 2664.899, 2116.750 2664.750 C 2140.813 2664.601, 2121.125 2664.478, 2073 2664.478 C 2024.875 2664.478, 2005.188 2664.601, 2029.250 2664.750" stroke="none" fill="#1c9acc" fill-rule="evenodd"/><path d="M 1892 124.597 C 1862.514 125.752, 1832.691 127.286, 1814.500 128.583 C 1496.774 151.238, 1194.838 254.879, 931.077 431.821 C 625.871 636.565, 387.287 932.478, 252.582 1273.350 C 182.517 1450.651, 140.891 1637.376, 129.047 1827.500 C 125.847 1878.877, 124.883 1967.425, 127.001 2015.500 C 138.669 2280.336, 202.398 2527.027, 319.073 2759 C 564.205 3246.370, 1018.630 3600.180, 1550 3717.383 C 1728.365 3756.725, 1910.798 3768.981, 2094 3753.929 C 2456.631 3724.136, 2799.741 3587.102, 3083.121 3358.885 C 3137.996 3314.692, 3183.221 3273.707, 3236.531 3219.856 C 3307.114 3148.558, 3365.594 3079.280, 3423.312 2998.587 C 3580.734 2778.505, 3686.657 2526.906, 3733.892 2260.864 C 3774.625 2031.444, 3770.543 1791.070, 3722.041 1563 C 3653.682 1241.551, 3500.915 947.671, 3276.041 705.023 C 3243.528 669.940, 3192 619.415, 3155 586.340 C 2922.233 378.264, 2639.587 233.327, 2336.500 166.626 C 2236.093 144.529, 2142.707 132.036, 2032.500 125.956 C 2014.073 124.939, 1909.162 123.924, 1892 124.597 M 1876 162.014 C 1829.746 164.003, 1787.002 167.252, 1743.500 172.087 C 1202.678 232.194, 718.479 538.701, 429.300 1004 C 383.587 1077.553, 340.364 1160.425, 305.869 1240.657 C 193.246 1502.606, 145.813 1789.536, 167.528 2077.500 C 181.170 2258.402, 222.182 2435.700, 289.202 2603.500 C 364.690 2792.502, 475.043 2971.034, 610.686 3123.605 C 659.540 3178.555, 716.008 3234.681, 770 3281.954 C 1065.496 3540.675, 1434.369 3693.716, 1824.500 3719.454 C 1869.655 3722.433, 1904.599 3723.263, 1961.358 3722.708 C 2018.485 3722.148, 2033.981 3721.532, 2081 3717.948 C 2375.799 3695.480, 2657.525 3600.989, 2906 3441.241 C 3067.994 3337.093, 3213.025 3206.304, 3334.297 3055 C 3456.644 2902.356, 3553.019 2730.708, 3619.405 2547.211 C 3705.142 2310.228, 3738.913 2059.237, 3719.472 1803.500 C 3698.012 1521.217, 3608.703 1247.251, 3459.659 1006.500 C 3251.693 670.571, 2938.758 413.045, 2569.522 273.971 C 2451.283 229.436, 2327.898 197.757, 2200 179.097 C 2149.530 171.734, 2096.241 166.532, 2034.500 162.943 C 2011.049 161.579, 1901.087 160.935, 1876 162.014 M 2012.991 261.121 C 2012.985 261.880, 2007.829 315.131, 2001.533 379.459 C 1995.236 443.786, 1990.321 496.655, 1990.611 496.944 C 1991.418 497.751, 2033.414 501.745, 2034.120 501.082 C 2034.460 500.762, 2038.054 466.203, 2042.105 424.285 C 2046.156 382.367, 2049.792 348.392, 2050.185 348.785 C 2050.577 349.178, 2068.694 385.685, 2090.445 429.912 C 2112.195 474.139, 2130.157 510.490, 2130.360 510.693 C 2131.190 511.524, 2177.541 515.603, 2178.024 514.888 C 2178.754 513.809, 2201.539 279.198, 2200.966 278.668 C 2200.347 278.097, 2157.833 273.834, 2157.370 274.297 C 2157.172 274.495, 2153.630 309.271, 2149.499 351.578 C 2145.369 393.885, 2141.837 429.175, 2141.651 430 C 2141.303 431.544, 2128.933 406.706, 2085.094 316.439 L 2059.811 264.379 2041.155 262.639 C 2030.895 261.682, 2020.362 260.639, 2017.750 260.321 C 2014.103 259.877, 2012.998 260.062, 2012.991 261.121 M 1803.571 266.077 C 1776.110 267.698, 1753.478 269.189, 1753.278 269.389 C 1752.814 269.852, 1765.964 506.297, 1766.482 506.815 C 1766.694 507.028, 1777.473 506.634, 1790.434 505.940 L 1814 504.679 1813.991 502.090 C 1813.986 500.665, 1812.865 479.925, 1811.500 456 C 1810.135 432.075, 1809.014 410.862, 1809.009 408.859 L 1809 405.219 1819.750 404.533 C 1832.016 403.751, 1842.172 405.027, 1848.212 408.108 C 1857.177 412.682, 1863.730 420.269, 1898.214 466 L 1922.720 498.500 1950.778 497 C 1966.210 496.175, 1979.044 495.275, 1979.299 495 C 1979.776 494.486, 1952.236 455.092, 1937.703 435.500 C 1923.710 416.637, 1914.076 407.717, 1895.567 396.493 L 1892.634 394.714 1900.067 392.807 C 1904.155 391.758, 1911.775 388.834, 1917 386.309 C 1941.572 374.433, 1954.491 349.592, 1950.943 321.040 C 1947.374 292.322, 1931.393 272.563, 1906.314 265.863 C 1893.543 262.451, 1863.936 262.513, 1803.571 266.077 M 1601.558 295.916 C 1554.841 305.669, 1516.480 314.066, 1516.313 314.575 C 1515.975 315.608, 1563.742 546.075, 1564.440 546.773 C 1564.752 547.085, 1740.170 511.251, 1741.658 510.572 C 1741.745 510.532, 1739.976 501.608, 1737.727 490.740 C 1734.342 474.379, 1733.369 471.060, 1732.069 471.446 C 1726.999 472.952, 1603.768 498.102, 1603.377 497.711 C 1602.373 496.706, 1590.104 435.500, 1590.783 434.882 C 1591.177 434.523, 1617.150 428.939, 1648.500 422.474 C 1679.850 416.008, 1705.842 410.417, 1706.260 410.049 C 1706.921 409.467, 1699.783 372.450, 1698.824 371.491 C 1698.625 371.292, 1672.431 376.538, 1640.615 383.149 C 1608.800 389.760, 1582.431 394.793, 1582.018 394.334 C 1581.265 393.497, 1570.736 343.868, 1571.234 343.504 C 1571.381 343.397, 1599.400 337.550, 1633.500 330.509 C 1667.600 323.468, 1695.814 317.436, 1696.199 317.104 C 1696.583 316.772, 1695.618 310.425, 1694.053 303 C 1692.489 295.575, 1690.680 286.913, 1690.034 283.750 C 1689.378 280.543, 1688.337 278.040, 1687.679 278.091 C 1687.031 278.142, 1648.276 286.163, 1601.558 295.916 M 1856 303.684 C 1819.233 305.696, 1803.995 306.677, 1803.646 307.055 C 1802.991 307.767, 1806.429 365.771, 1807.171 366.509 C 1807.930 367.263, 1856.938 364.438, 1869.381 362.922 C 1880.338 361.588, 1886.854 359.613, 1891.564 356.199 C 1903.845 347.297, 1905.628 324.146, 1894.927 312.536 C 1887.515 304.495, 1878.527 302.451, 1856 303.684 M 2263.500 411.059 C 2222.800 467.703, 2189.388 514.374, 2189.252 514.774 C 2188.950 515.656, 2237.029 528.100, 2238.124 527.423 C 2238.551 527.160, 2245.957 516.607, 2254.584 503.972 C 2263.210 491.337, 2270.757 481, 2271.355 481 C 2272.558 481, 2362.343 504.017, 2362.764 504.434 C 2362.909 504.577, 2364.448 517.251, 2366.184 532.597 C 2367.920 547.944, 2369.699 560.913, 2370.138 561.418 C 2370.998 562.408, 2419.240 575.093, 2419.845 574.489 C 2420.369 573.964, 2387.759 321.641, 2387.056 320.785 C 2386.457 320.054, 2340.504 307.971, 2338.567 308.035 C 2337.980 308.054, 2304.200 354.415, 2263.500 411.059 M 1379 358.406 C 1330.875 375.600, 1291.500 390.121, 1291.500 390.676 C 1291.500 391.230, 1294.384 399.810, 1297.909 409.743 L 1304.318 427.802 1316.409 423.490 C 1323.059 421.118, 1337.950 415.803, 1349.500 411.679 C 1361.050 407.554, 1370.767 404.477, 1371.093 404.840 C 1371.531 405.327, 1427.047 560.702, 1436.233 587.148 L 1437.500 590.797 1460.137 582.743 L 1482.775 574.689 1480.498 568.094 C 1479.246 564.467, 1464.446 522.878, 1447.610 475.673 C 1430.775 428.467, 1417.006 389.317, 1417.014 388.673 C 1417.022 388.028, 1431.689 382.325, 1449.607 376 C 1467.525 369.675, 1482.302 364.275, 1482.443 364 C 1482.585 363.725, 1479.751 355.288, 1476.145 345.250 C 1471.410 332.070, 1469.160 327.020, 1468.045 327.073 C 1467.195 327.113, 1427.125 341.213, 1379 358.406 M 2470.753 363.797 L 2463.392 382.500 2495.946 395.575 C 2518.884 404.787, 2528.427 409.070, 2528.253 410.075 C 2528.117 410.859, 2511.789 452.187, 2491.968 501.915 C 2472.148 551.644, 2456.284 592.640, 2456.715 593.017 C 2457.817 593.980, 2498.261 610.006, 2499.582 610.003 C 2500.178 610.001, 2517.005 568.938, 2536.977 518.750 C 2556.948 468.563, 2573.456 427.305, 2573.661 427.066 C 2573.866 426.828, 2588.317 432.340, 2605.774 439.316 C 2623.230 446.292, 2637.992 452, 2638.577 452 C 2639.643 452, 2654.431 416.098, 2653.676 415.343 C 2653.456 415.122, 2614.851 399.649, 2567.887 380.959 C 2520.924 362.268, 2481.513 346.553, 2480.307 346.035 C 2478.216 345.139, 2477.771 345.965, 2470.753 363.797 M 2321.687 406.411 C 2307.559 427.001, 2296 444.265, 2296 444.776 C 2296 445.762, 2356.695 461.638, 2357.477 460.856 C 2358.127 460.206, 2348.857 370.665, 2348.044 369.737 C 2347.676 369.318, 2335.815 385.821, 2321.687 406.411 M 1223.500 421.167 C 1213.050 426.728, 1204.374 431.379, 1204.221 431.501 C 1204.067 431.624, 1220.544 463.174, 1240.836 501.612 C 1261.127 540.051, 1277.636 571.617, 1277.522 571.760 C 1277.407 571.903, 1241.581 550.813, 1197.907 524.895 C 1154.233 498.976, 1118.257 477.628, 1117.959 477.455 C 1117.070 476.938, 1076.485 498.857, 1076.679 499.750 C 1076.777 500.202, 1101.703 547.687, 1132.071 605.272 L 1187.285 709.973 1204.976 700.737 C 1214.707 695.656, 1223.582 690.825, 1224.698 690 C 1226.675 688.539, 1225.800 686.745, 1190.841 620.606 C 1171.104 583.264, 1155.077 552.599, 1155.227 552.460 C 1155.377 552.322, 1190.600 572.867, 1233.500 598.117 C 1276.400 623.367, 1311.961 643.907, 1312.525 643.763 C 1313.089 643.618, 1322.829 638.617, 1334.170 632.648 L 1354.790 621.796 1348.645 610.107 C 1296.899 511.675, 1243.511 411.006, 1243.067 411.028 C 1242.755 411.043, 1233.950 415.605, 1223.500 421.167 M 2643.014 521.750 C 2618.618 569.462, 2594.254 617.050, 2588.872 627.500 L 2579.088 646.500 2600.452 657.500 C 2612.202 663.550, 2622.008 668.275, 2622.243 668 C 2624.454 665.413, 2729.995 456.801, 2729.499 455.998 C 2728.820 454.900, 2689.677 435, 2688.195 435 C 2687.742 435, 2667.411 474.038, 2643.014 521.750 M 2798.058 515.122 C 2778.693 517.365, 2758.467 525.722, 2742.313 538.154 C 2730.637 547.140, 2714.254 566.703, 2703.500 584.500 C 2688.326 609.614, 2681.407 636.439, 2684.009 660.078 C 2686.795 685.401, 2697.271 706.644, 2716.044 725.036 C 2736.105 744.689, 2764.621 759.572, 2788.917 763.068 C 2806.814 765.643, 2829.128 762.496, 2845.451 755.095 C 2879.366 739.717, 2912.067 698.565, 2923.580 656.778 C 2926.776 645.177, 2927.915 625, 2926.036 613.273 C 2922.371 590.397, 2912.650 571.745, 2895.353 554.403 C 2874.603 533.598, 2843.960 517.965, 2818.127 515.005 C 2808.552 513.908, 2808.535 513.908, 2798.058 515.122 M 1008.576 545.072 C 998.168 552.190, 989.495 558.172, 989.302 558.365 C 988.970 558.697, 1119.205 753.468, 1121.063 755.419 C 1122.039 756.444, 1160.966 731.139, 1160.935 729.500 C 1160.908 728.037, 1029.652 532.705, 1028.486 532.394 C 1027.944 532.249, 1018.984 537.954, 1008.576 545.072 M 2800 561.427 C 2797.525 562.113, 2793.310 563.646, 2790.634 564.833 C 2769.776 574.082, 2744.457 605.526, 2735.342 633.500 C 2731.929 643.976, 2731.058 660.327, 2733.386 670.243 C 2737.552 687.995, 2750.727 703.967, 2768.121 712.351 C 2779.502 717.836, 2787.200 719.444, 2798.784 718.755 C 2821.745 717.390, 2842.237 703.132, 2860.269 675.977 C 2873.675 655.787, 2878.906 642.198, 2879.699 625.500 C 2880.488 608.896, 2876.737 597.227, 2866.620 584.807 C 2858.474 574.806, 2842.800 564.746, 2830.289 561.487 C 2823.399 559.692, 2806.377 559.658, 2800 561.427 M 870 645.937 C 859.275 655.772, 850.397 664.646, 850.272 665.659 C 850.147 666.672, 855.121 690.675, 861.325 719 C 867.529 747.325, 872.263 770.644, 871.845 770.819 C 871.427 770.995, 847.815 764.125, 819.374 755.553 C 768.686 740.277, 767.621 740.005, 765.581 741.807 C 764.437 742.818, 755.080 751.363, 744.789 760.795 L 726.078 777.944 729.789 778.962 C 731.830 779.522, 767.250 789.142, 808.500 800.340 L 883.500 820.699 917.152 857.440 C 935.660 877.647, 951.117 894.188, 951.500 894.198 C 951.883 894.208, 960.019 887.092, 969.579 878.385 L 986.961 862.555 984.145 859.528 C 982.596 857.862, 968.806 842.775, 953.502 826 C 938.198 809.225, 924.216 793.925, 922.431 792 L 919.187 788.500 904.867 708.250 C 896.992 664.112, 890.312 628.013, 890.024 628.028 C 889.736 628.044, 880.725 636.103, 870 645.937 M 2932.894 728.997 C 2888.677 776.872, 2852.500 816.463, 2852.500 816.976 C 2852.500 817.874, 2883.404 847, 2884.357 847 C 2884.614 847, 2908.322 821.559, 2937.042 790.464 C 2965.762 759.369, 2989.383 734.056, 2989.532 734.214 C 2989.758 734.452, 2957.044 904.166, 2955.533 910.592 C 2955.136 912.279, 2958.438 915.821, 2972.544 928.842 C 2982.170 937.729, 2990.374 944.965, 2990.773 944.922 C 2991.884 944.803, 3151.500 771.443, 3151.500 770.356 C 3151.500 769.580, 3129.149 748.339, 3121.427 741.775 C 3119.442 740.088, 3118.241 741.304, 3065.949 797.973 C 3036.552 829.831, 3012.378 855.552, 3012.228 855.132 C 3012.078 854.711, 3019.806 814.797, 3029.402 766.434 C 3038.997 718.070, 3046.995 677.329, 3047.174 675.898 C 3047.453 673.667, 3045.348 671.310, 3032.434 659.398 C 3024.147 651.754, 3016.450 644.701, 3015.328 643.725 C 3013.320 641.979, 3012.018 643.325, 2932.894 728.997 M 650.461 868.105 C 617.483 907.791, 590.500 940.584, 590.500 940.978 C 590.500 941.372, 595 945.451, 600.500 950.043 C 606 954.635, 612.795 960.326, 615.599 962.689 L 620.698 966.985 642.954 940.242 C 655.194 925.534, 665.520 913.381, 665.899 913.235 C 666.278 913.090, 700.735 941.349, 742.469 976.033 C 814.647 1036.020, 818.430 1039.008, 820.026 1037.298 C 821.607 1035.603, 844.975 1007.451, 847.827 1003.805 C 849.014 1002.288, 841.342 995.621, 774.326 939.934 C 733.172 905.737, 698.911 877.207, 698.191 876.534 C 696.950 875.374, 706.032 863.845, 737.706 826.366 L 742.045 821.232 727.518 809.083 C 719.529 802.401, 712.414 796.712, 711.707 796.441 C 710.925 796.141, 686.950 824.194, 650.461 868.105 M 3121.500 913.421 C 3055.500 933.888, 3000.933 950.830, 3000.239 951.070 C 2999.066 951.477, 3027.338 988.402, 3030.271 990.292 C 3030.990 990.756, 3042.667 987.342, 3058.432 982.058 C 3073.245 977.093, 3085.444 973.137, 3085.541 973.266 C 3085.637 973.395, 3098.830 990.035, 3114.858 1010.245 C 3130.886 1030.454, 3144 1047.405, 3144 1047.914 C 3144 1048.688, 3120.597 1089.021, 3116.342 1095.580 C 3115.092 1097.507, 3116.189 1099.166, 3131.332 1118.243 L 3147.671 1138.827 3211.386 1027.327 C 3253.218 954.122, 3274.798 915.428, 3274.216 914.664 C 3262.979 899.895, 3243.399 876.026, 3242.585 876.105 C 3241.988 876.162, 3187.500 892.955, 3121.500 913.421 M 3170.250 944.662 C 3146.463 952.640, 3127 959.580, 3127 960.086 C 3127 961.918, 3166.190 1010.208, 3166.993 1009.366 C 3167.799 1008.519, 3211.823 936.069, 3213.979 932.039 C 3214.579 930.918, 3214.717 930.036, 3214.285 930.079 C 3213.853 930.122, 3194.037 936.685, 3170.250 944.662 M 556.117 992.733 C 543.159 1011.744, 542.797 1012.416, 544.701 1013.933 C 547.709 1016.331, 737.900 1146.459, 738.877 1146.789 C 739.681 1147.060, 764.327 1111.917, 765.529 1108.786 C 765.926 1107.750, 738.202 1088.238, 668.031 1040.169 C 614.102 1003.226, 569.871 973.022, 569.739 973.050 C 569.608 973.077, 563.478 981.934, 556.117 992.733 M 3253.966 1089.412 C 3196.624 1122.932, 3152.500 1149.329, 3152.500 1150.113 C 3152.500 1152.341, 3235.392 1293.972, 3236.552 1293.725 C 3238.741 1293.257, 3270 1274.566, 3270 1273.725 C 3270 1273.240, 3256.702 1250.108, 3240.450 1222.322 C 3224.197 1194.535, 3211.035 1171.401, 3211.200 1170.912 C 3211.365 1170.423, 3249.295 1147.935, 3295.488 1120.940 C 3341.682 1093.944, 3379.565 1071.768, 3379.673 1071.660 C 3379.835 1071.498, 3356.263 1030.954, 3355.627 1030.299 C 3355.519 1030.188, 3309.772 1056.789, 3253.966 1089.412 M 524.074 1085.055 C 502.836 1090.616, 482.939 1105.699, 469.469 1126.450 C 443.224 1166.879, 441.760 1210.211, 465.412 1246.497 C 488.982 1282.655, 544.245 1312.975, 586.619 1312.996 C 607.970 1313.007, 631.324 1305.362, 648.231 1292.829 C 668.813 1277.571, 685.600 1250.271, 691.485 1222.487 C 693.660 1212.221, 693.422 1195.320, 690.959 1185.044 C 687.104 1168.965, 676.016 1150.021, 663.190 1137.602 L 658.131 1132.704 640.640 1149.602 L 623.149 1166.500 630.366 1174 C 642.146 1186.242, 647.488 1196.570, 648.657 1209.362 C 649.447 1218.005, 647.679 1226.165, 642.922 1235.833 C 631.002 1260.053, 606.483 1270.777, 578.411 1264.047 C 552.233 1257.770, 517.040 1237.149, 503.886 1220.378 C 492.884 1206.351, 488.825 1190.670, 492.090 1174.799 C 493.922 1165.895, 500.396 1153.719, 507.122 1146.529 C 518.067 1134.828, 529.001 1130.413, 544.935 1131.257 C 550.196 1131.536, 555.175 1132.046, 556 1132.390 C 557.217 1132.897, 558.630 1128.747, 563.500 1110.352 C 566.800 1097.887, 569.634 1087.142, 569.799 1086.473 C 570.678 1082.891, 536.397 1081.828, 524.074 1085.055 M 3451 1318.031 C 3424.325 1327.323, 3393.275 1338.150, 3382 1342.092 C 3358.270 1350.389, 3338.118 1358.924, 3327.764 1365.062 C 3305.471 1378.277, 3292.445 1404.190, 3294.366 1431.500 C 3295.502 1447.649, 3302.490 1472.580, 3310.924 1490.580 C 3319.668 1509.239, 3332.895 1523.874, 3347.500 1531.050 C 3358.078 1536.247, 3365.457 1538, 3376.752 1538 C 3394.871 1538, 3407.104 1534.496, 3494.500 1504.272 C 3531.900 1491.338, 3562.616 1480.657, 3562.758 1480.536 C 3562.951 1480.372, 3548.155 1436.375, 3547.545 1435.299 C 3547.483 1435.188, 3516.847 1445.691, 3479.466 1458.639 C 3396.291 1487.447, 3390.327 1489.273, 3378.982 1489.403 C 3371.267 1489.491, 3369.834 1489.190, 3363.774 1486.208 C 3356.011 1482.388, 3351.287 1477.397, 3346.501 1467.957 C 3340.954 1457.016, 3338.544 1447.735, 3338.592 1437.500 C 3338.648 1425.775, 3341.170 1419.091, 3348.543 1411.127 C 3357.624 1401.318, 3358.812 1400.830, 3452.500 1368.458 C 3487.150 1356.486, 3515.718 1346.504, 3515.985 1346.277 C 3516.423 1345.903, 3511.548 1331.151, 3503.749 1309.250 C 3502.133 1304.713, 3500.516 1301.031, 3500.155 1301.069 C 3499.795 1301.107, 3477.675 1308.740, 3451 1318.031 M 348.882 1404.975 L 342.264 1428.021 347.382 1429.501 C 406.928 1446.719, 431.205 1453.872, 431.666 1454.333 C 432.242 1454.909, 407.169 1542.962, 406.091 1544.152 C 405.766 1544.510, 385.496 1538.999, 361.046 1531.905 C 336.597 1524.811, 316.309 1519.343, 315.962 1519.754 C 315.615 1520.164, 312.502 1530.340, 309.045 1542.367 C 304.504 1558.165, 303.085 1564.435, 303.934 1564.959 C 305.593 1565.985, 531.060 1631.275, 531.473 1630.850 C 532.050 1630.255, 544.928 1585.594, 544.613 1585.280 C 544.450 1585.117, 522.308 1578.632, 495.408 1570.869 C 468.509 1563.107, 446.164 1556.452, 445.754 1556.081 C 444.756 1555.181, 470.420 1466.693, 471.812 1466.229 C 472.411 1466.030, 494.978 1472.267, 521.960 1480.090 C 548.943 1487.913, 571.159 1494.131, 571.329 1493.907 C 571.499 1493.683, 574.577 1483.321, 578.169 1470.880 L 584.699 1448.259 471.599 1415.474 C 409.395 1397.442, 357.825 1382.517, 357 1382.308 C 355.830 1382.013, 354.043 1387.002, 348.882 1404.975 M 2602.157 1405.749 L 2505.814 1406.010 2506.406 1702.755 C 2506.732 1865.965, 2507.266 2148.949, 2507.592 2331.608 L 2508.185 2663.716 2185.843 2664.342 C 2008.554 2664.687, 1753.475 2665.088, 1619 2665.234 L 1374.500 2665.500 1374.233 2540 C 1374.087 2470.975, 1373.637 2188.075, 1373.233 1911.333 C 1372.830 1634.591, 1372.275 1408.012, 1372 1407.823 C 1371.725 1407.635, 1237.894 1407.710, 1074.598 1407.990 L 777.696 1408.500 772.319 1421.500 C 737.176 1506.467, 707.214 1599.646, 689.541 1678.930 C 663.649 1795.092, 656.927 1896.242, 666.578 2024.500 C 687.466 2302.096, 784.618 2556.502, 946.877 2758.500 C 977.923 2797.149, 996.729 2817.956, 1036.395 2857.542 C 1068.927 2890.009, 1084.228 2904.067, 1115 2929.763 C 1273.837 3062.397, 1474.406 3156.823, 1685.615 3198.401 C 1907.398 3242.062, 2146.302 3227.050, 2361 3155.964 C 2529.869 3100.051, 2679.867 3013.064, 2812 2894.418 C 2833.216 2875.367, 2880.367 2828.216, 2899.418 2807 C 3028.472 2663.276, 3119.816 2498.197, 3173.438 2311.789 C 3220.152 2149.391, 3235.834 1968.024, 3217.429 1803 C 3203.779 1680.609, 3169.378 1549.651, 3117.740 1423.500 L 3110.372 1405.500 2904.436 1405.494 C 2791.171 1405.490, 2655.146 1405.605, 2602.157 1405.749 M 3462.789 1570.904 C 3399.698 1582.281, 3347.793 1591.874, 3347.445 1592.222 C 3347.097 1592.570, 3348.530 1602.545, 3350.631 1614.390 C 3354.211 1634.586, 3354.575 1635.897, 3356.474 1635.467 C 3364.160 1633.726, 3504.547 1609.016, 3505.308 1609.269 C 3505.835 1609.445, 3476.057 1636.697, 3439.133 1669.828 C 3399.515 1705.378, 3372 1730.775, 3372 1731.793 C 3372 1734.076, 3379.745 1777.078, 3380.246 1777.579 C 3380.636 1777.969, 3614.035 1736.331, 3614.508 1735.788 C 3614.796 1735.457, 3607.127 1692.794, 3606.703 1692.370 C 3606.549 1692.215, 3571.575 1698.342, 3528.984 1705.984 C 3486.392 1713.626, 3451.412 1719.746, 3451.250 1719.583 C 3451.088 1719.421, 3482.151 1691.532, 3520.280 1657.606 L 3589.604 1595.924 3585.552 1572.963 C 3581.834 1551.893, 3581.335 1550.012, 3579.500 1550.111 C 3578.400 1550.171, 3525.880 1559.528, 3462.789 1570.904 M 288.021 1635.750 C 288.033 1636.162, 286.841 1645.846, 285.373 1657.268 C 283.905 1668.691, 282.971 1678.305, 283.299 1678.632 C 283.627 1678.960, 318.670 1683.673, 361.172 1689.106 C 403.675 1694.538, 438.829 1699.110, 439.294 1699.265 C 439.758 1699.419, 402.194 1716.592, 355.819 1737.425 C 309.444 1758.259, 271.206 1775.573, 270.846 1775.902 C 270.316 1776.386, 266.018 1807.372, 264.800 1819.484 L 264.500 1822.469 382.500 1837.549 L 500.500 1852.629 501.143 1849.564 C 502.336 1843.873, 506.435 1809.101, 505.965 1808.646 C 505.709 1808.397, 471.525 1803.863, 430 1798.570 C 388.475 1793.277, 354.088 1788.821, 353.585 1788.668 C 353.081 1788.515, 390.094 1771.373, 435.835 1750.575 C 481.576 1729.777, 519.003 1712.252, 519.007 1711.630 C 519.010 1711.009, 520.333 1700.385, 521.946 1688.023 C 523.559 1675.660, 524.732 1665.398, 524.552 1665.218 C 524.223 1664.890, 291.591 1635.022, 289.250 1635.008 C 288.563 1635.003, 288.010 1635.338, 288.021 1635.750 M 3499.500 1804.831 C 3434.600 1809.499, 3381.321 1813.464, 3381.102 1813.641 C 3380.564 1814.076, 3383.936 1860.269, 3384.550 1860.883 C 3385.219 1861.552, 3620.317 1844.815, 3621.248 1844.033 C 3622.098 1843.318, 3619.080 1797.810, 3618.123 1796.921 C 3617.780 1796.603, 3564.400 1800.162, 3499.500 1804.831 M 3505.500 1915.183 C 3440.050 1936.640, 3386.433 1954.265, 3386.351 1954.348 C 3386.268 1954.432, 3385.875 1965.989, 3385.476 1980.032 L 3384.750 2005.564 3502.448 2051.376 C 3567.182 2076.572, 3620.326 2097.007, 3620.547 2096.786 C 3620.768 2096.565, 3621.254 2085.159, 3621.626 2071.438 L 3622.304 2046.492 3535.175 2015.023 C 3487.253 1997.715, 3448.598 1983.249, 3449.273 1982.877 C 3449.948 1982.504, 3489.635 1969.997, 3537.467 1955.083 C 3585.298 1940.169, 3624.729 1927.637, 3625.090 1927.233 C 3625.451 1926.830, 3626.037 1915.138, 3626.393 1901.250 C 3626.909 1881.138, 3626.782 1876.017, 3625.771 1876.085 C 3625.072 1876.132, 3570.950 1893.726, 3505.500 1915.183 M 263.652 1886.750 C 263.301 1890.463, 263.011 1901.263, 263.007 1910.750 L 263 1928 271.250 1927.995 C 275.788 1927.992, 329.160 1929.145, 389.856 1930.556 C 450.552 1931.967, 500.406 1932.928, 500.643 1932.691 C 501.542 1931.791, 502.293 1885, 501.409 1884.988 C 500.909 1884.981, 453.250 1883.862, 395.500 1882.501 C 337.750 1881.140, 284.603 1880.020, 277.395 1880.013 L 264.289 1880 263.652 1886.750 M 376.500 1976.151 C 313.250 1982.165, 261.028 1987.242, 260.451 1987.434 C 259.461 1987.763, 265.428 2057.762, 266.541 2058.875 C 267.004 2059.338, 301.132 2065.083, 383.276 2078.528 C 409.553 2082.829, 430.703 2086.664, 430.276 2087.050 C 429.849 2087.436, 394.682 2100.614, 352.126 2116.334 C 309.570 2132.053, 274.648 2145.046, 274.521 2145.207 C 274.243 2145.559, 280.926 2216.273, 281.264 2216.566 C 281.394 2216.678, 334.568 2211.744, 399.428 2205.601 C 490.478 2196.978, 517.459 2194.122, 517.810 2193.071 C 518.434 2191.197, 514.882 2151.695, 513.999 2150.694 C 513.608 2150.251, 472.447 2153.759, 422.529 2158.489 C 372.611 2163.219, 331.359 2166.953, 330.857 2166.786 C 330.355 2166.618, 370.471 2152.124, 420.003 2134.577 L 510.062 2102.672 509.449 2097.086 C 509.111 2094.014, 508.085 2083.648, 507.168 2074.051 L 505.500 2056.603 410.500 2041.984 C 341.425 2031.354, 316.592 2027.197, 319.500 2026.751 C 321.700 2026.413, 363.100 2022.437, 411.500 2017.916 C 459.900 2013.394, 499.851 2009.390, 500.281 2009.017 C 500.710 2008.644, 500.150 1999.150, 499.036 1987.919 C 497.922 1976.689, 497.008 1966.938, 497.005 1966.250 C 497.002 1965.528, 495.839 1965.046, 494.250 1965.109 C 492.738 1965.168, 439.750 1970.138, 376.500 1976.151 M 3380 2099.546 C 3380 2099.743, 3373.234 2139.809, 3364.964 2188.582 C 3356.694 2237.355, 3350.203 2277.539, 3350.540 2277.880 C 3351.515 2278.866, 3388.435 2284.870, 3389.094 2284.150 C 3389.420 2283.792, 3394.595 2254.363, 3400.594 2218.751 C 3409.297 2167.080, 3411.800 2154.002, 3412.984 2154.001 C 3416.163 2153.999, 3474.533 2164.160, 3475.073 2164.810 C 3475.387 2165.190, 3471.248 2191.150, 3465.873 2222.500 C 3460.499 2253.850, 3456.079 2280.175, 3456.051 2281 C 3456.011 2282.175, 3460.164 2283.211, 3475.180 2285.771 C 3485.729 2287.569, 3494.653 2288.694, 3495.012 2288.270 C 3495.371 2287.847, 3500.053 2261.400, 3505.417 2229.500 C 3510.781 2197.600, 3515.270 2171.399, 3515.392 2171.276 C 3515.825 2170.840, 3566.081 2179.747, 3566.703 2180.369 C 3567.050 2180.716, 3562.546 2209.212, 3556.694 2243.694 C 3550.842 2278.175, 3546.156 2306.489, 3546.280 2306.613 C 3547.195 2307.528, 3586 2313.495, 3586 2312.720 C 3586 2312.181, 3592.560 2273.058, 3600.578 2225.781 C 3608.595 2178.503, 3614.994 2139.661, 3614.797 2139.464 C 3614.600 2139.266, 3562.477 2130.310, 3498.969 2119.561 C 3435.461 2108.813, 3382.713 2099.831, 3381.750 2099.603 C 3380.787 2099.374, 3380 2099.349, 3380 2099.546 M 412.346 2248.439 C 350.662 2261.802, 299.109 2273.007, 297.784 2273.339 L 295.376 2273.944 300.436 2297.484 C 303.303 2310.817, 305.931 2320.866, 306.498 2320.660 C 307.049 2320.460, 359.362 2309.107, 422.750 2295.431 C 512.794 2276.003, 538 2270.240, 538 2269.081 C 538 2268.265, 535.885 2257.788, 533.299 2245.799 C 529.014 2225.930, 528.417 2224.006, 526.549 2224.072 C 525.422 2224.111, 474.031 2235.076, 412.346 2248.439 M 3336.562 2324.804 C 3332.422 2337.214, 3329.152 2347.485, 3329.297 2347.630 C 3329.441 2347.775, 3350.471 2354.739, 3376.030 2363.107 C 3401.588 2371.475, 3422.701 2378.488, 3422.946 2378.691 C 3423.694 2379.308, 3417.941 2396.092, 3414.670 2402.837 C 3412.980 2406.322, 3409.837 2410.988, 3407.685 2413.205 C 3399.912 2421.215, 3391.762 2423.981, 3300.295 2449.655 L 3295.091 2451.116 3287.487 2474.308 C 3283.305 2487.064, 3279.289 2499.331, 3278.564 2501.568 L 3277.245 2505.636 3310.873 2497.389 C 3370.604 2482.739, 3376.412 2480.473, 3400.955 2462.247 C 3402.504 2461.096, 3402.581 2461.425, 3401.894 2466.247 C 3397.778 2495.148, 3408.609 2520.893, 3430.340 2533.865 C 3437.531 2538.158, 3450.398 2542.590, 3459.956 2544.066 C 3479.827 2547.136, 3500.961 2539.821, 3513.822 2525.423 C 3524.070 2513.951, 3529.864 2500.010, 3551.006 2435.954 C 3561.453 2404.303, 3570 2377.946, 3570 2377.382 C 3570 2376.548, 3446.763 2335.452, 3363.296 2308.453 L 3344.091 2302.242 3336.562 2324.804 M 431.323 2341.350 C 369.625 2361.782, 318.858 2378.792, 318.506 2379.150 C 317.617 2380.054, 332.024 2424, 333.210 2424 C 333.740 2424, 353.372 2417.699, 376.837 2409.998 C 400.301 2402.297, 420.025 2395.997, 420.667 2395.998 C 422.021 2396, 451.545 2483.780, 450.539 2484.813 C 450.170 2485.191, 430.135 2492.025, 406.016 2500 L 362.163 2514.500 369.647 2537.332 C 374.612 2552.479, 377.536 2560.008, 378.334 2559.702 C 378.995 2559.448, 429.703 2542.700, 491.018 2522.483 C 552.333 2502.267, 602.693 2485.557, 602.928 2485.352 C 603.352 2484.981, 589.414 2441.080, 588.620 2440.286 C 588.393 2440.059, 566.077 2447.144, 539.031 2456.031 C 511.984 2464.917, 489.721 2472.033, 489.557 2471.844 C 488.902 2471.086, 459.848 2382.821, 460.162 2382.543 C 460.348 2382.379, 482.645 2374.981, 509.711 2366.104 C 542.983 2355.191, 558.792 2349.564, 558.519 2348.731 C 558.296 2348.054, 554.910 2337.713, 550.994 2325.750 C 547.078 2313.787, 543.789 2304.045, 543.687 2304.100 C 543.584 2304.154, 493.020 2320.917, 431.323 2341.350 M 3450.736 2418.250 C 3440.060 2451.587, 3437.615 2461.568, 3438.282 2469.072 C 3439.222 2479.634, 3445.867 2487.861, 3456.921 2492.148 C 3464.569 2495.113, 3474.991 2495.164, 3480.568 2492.262 C 3485.826 2489.526, 3491.569 2483.125, 3494.584 2476.640 C 3497.331 2470.730, 3517.488 2410.144, 3516.894 2409.580 C 3516.433 2409.142, 3460.934 2391, 3460.055 2391 C 3459.729 2391, 3455.535 2403.262, 3450.736 2418.250 M 3302 2530.653 C 3282.324 2532.624, 3266.412 2540.251, 3252.459 2554.397 C 3239.777 2567.255, 3226.657 2589.617, 3219.118 2611.225 C 3209.689 2638.252, 3211.341 2663.057, 3223.841 2682.131 C 3237.763 2703.373, 3263.729 2717.089, 3287.463 2715.735 C 3312.454 2714.309, 3327.334 2704.062, 3362.162 2664.294 C 3385.254 2637.927, 3394.186 2630.769, 3404 2630.769 C 3410.511 2630.769, 3416.325 2633.991, 3419.457 2639.336 C 3421.612 2643.013, 3422 2644.906, 3422 2651.733 C 3422 2670.994, 3409.407 2694.332, 3394.967 2701.832 C 3388.613 2705.132, 3388.325 2705.182, 3378.500 2704.702 C 3373 2704.434, 3367.560 2703.907, 3366.410 2703.532 C 3364.509 2702.912, 3363.494 2704.676, 3355.110 2723.175 C 3350.045 2734.354, 3345.810 2744.321, 3345.700 2745.325 C 3345.245 2749.475, 3365.517 2754.490, 3379.873 2753.778 C 3409.049 2752.332, 3432.499 2733.322, 3450.531 2696.500 C 3470.011 2656.720, 3468.308 2624.488, 3445.506 2601.408 C 3428.695 2584.392, 3403.856 2578.781, 3380.689 2586.767 C 3364.166 2592.462, 3352.339 2602.440, 3323.780 2634.778 C 3301.763 2659.708, 3295.354 2665.120, 3286.100 2666.600 C 3276.688 2668.105, 3266.478 2662.126, 3261.040 2651.924 C 3254.631 2639.899, 3255.733 2626.192, 3264.555 2608.229 C 3275.724 2585.485, 3293.220 2575.476, 3315.740 2578.946 C 3330.629 2581.240, 3328.173 2583.430, 3337.553 2559.500 C 3342.081 2547.950, 3345.496 2538.218, 3345.143 2537.873 C 3344.086 2536.842, 3334.980 2534.139, 3327.500 2532.636 C 3319.731 2531.074, 3307.381 2530.114, 3302 2530.653 M 570 2538.657 C 561.336 2539.323, 548.985 2541.215, 548.534 2541.945 C 548.161 2542.548, 555.785 2589.170, 556.333 2589.644 C 556.425 2589.723, 559.425 2589.170, 563 2588.415 C 571.728 2586.571, 587.165 2586.631, 594.485 2588.538 C 610.553 2592.723, 623.519 2605.811, 629.618 2624 C 632.514 2632.638, 632.154 2647.471, 628.823 2656.716 C 622.197 2675.111, 604.950 2690.612, 574.500 2705.540 C 554.976 2715.111, 541.440 2719, 527.645 2719 C 501.440 2719, 478.851 2699.663, 473.337 2672.513 C 470.292 2657.514, 474.764 2642.341, 485.571 2631.011 L 491.212 2625.097 475.363 2606.575 L 459.514 2588.054 454.652 2592.777 C 443.344 2603.764, 434.077 2619.211, 430.521 2633 C 427.945 2642.993, 427.434 2660.742, 429.420 2671.275 C 434.845 2700.056, 452.026 2728.556, 474 2745.226 C 482.320 2751.538, 496.037 2758.249, 507.500 2761.615 C 519.638 2765.180, 541.966 2766.073, 555.500 2763.534 C 576.419 2759.610, 603.003 2748.544, 621.890 2735.897 C 664.015 2707.690, 682.687 2663.134, 671.001 2618.710 C 663.108 2588.705, 641.148 2559.574, 617.500 2547.736 C 604.645 2541.301, 584.846 2537.517, 570 2538.657 M 3169.595 2702.775 C 3152.572 2729.198, 3148.129 2736.518, 3148.770 2737.084 C 3151.796 2739.756, 3348.331 2864.056, 3349.115 2863.795 C 3350.703 2863.266, 3374.984 2824.581, 3374.201 2823.827 C 3373.815 2823.455, 3328.596 2794.554, 3273.714 2759.601 L 3173.928 2696.050 3169.595 2702.775 M 682.250 2745.996 C 662.577 2748.774, 643.015 2756.996, 622.300 2771.194 C 589.939 2793.375, 570.155 2820.357, 563.784 2851 C 561.212 2863.373, 561.702 2884.489, 564.833 2896.198 C 570.854 2918.714, 582.390 2938.256, 600.920 2957.332 C 616.186 2973.047, 630.444 2981.814, 648.732 2986.733 C 657.522 2989.097, 660.253 2989.360, 676 2989.360 C 691.677 2989.360, 694.489 2989.092, 703 2986.785 C 741.922 2976.234, 784.031 2942.695, 800.037 2909.500 C 815.707 2877.001, 813.503 2840.451, 793.908 2807.848 C 783.379 2790.328, 769.141 2774.197, 755.813 2764.686 C 746.503 2758.042, 731.982 2751.368, 720.500 2748.455 C 709.306 2745.615, 692.568 2744.539, 682.250 2745.996 M 686.500 2794.898 C 671.163 2798.735, 654.499 2807.981, 637.880 2821.874 C 622.941 2834.363, 612.949 2847.947, 608.733 2861.500 C 605.686 2871.294, 605.766 2886.812, 608.911 2896 C 612.488 2906.452, 618.572 2915.753, 627.912 2925.045 C 640.587 2937.657, 653.036 2942.952, 670.090 2942.985 C 690.925 2943.026, 718.396 2929.289, 740.053 2908 C 753.689 2894.596, 760.416 2883.279, 763.435 2868.660 C 767.883 2847.129, 761.377 2827.215, 744.387 2810.353 C 729.442 2795.521, 707.465 2789.654, 686.500 2794.898 M 3083.775 2825.758 C 3075.768 2836.066, 3069.406 2844.815, 3069.637 2845.199 C 3069.867 2845.584, 3104.918 2872.960, 3147.528 2906.034 C 3190.137 2939.109, 3225 2966.373, 3225 2966.622 C 3225 2966.870, 3215.352 2979.521, 3203.560 2994.735 L 3182.120 3022.396 3188.717 3027.448 C 3192.345 3030.227, 3199.405 3035.726, 3204.407 3039.669 L 3213.500 3046.838 3215.617 3044.669 C 3217.642 3042.595, 3327.815 2900.776, 3329.321 2898.307 C 3329.792 2897.533, 3324.589 2892.872, 3314.532 2885.057 C 3305.999 2878.426, 3298.797 2873, 3298.528 2873 C 3298.260 2873, 3288.524 2885.262, 3276.893 2900.250 C 3265.261 2915.238, 3255.232 2927.455, 3254.605 2927.400 C 3253.978 2927.345, 3220.172 2901.455, 3179.482 2869.866 C 3138.792 2838.278, 3103.887 2811.214, 3101.916 2809.724 L 3098.332 2807.016 3083.775 2825.758 M 783.154 2991.750 L 700.095 3076.500 717.124 3093.500 L 734.152 3110.500 767.003 3077.001 L 799.853 3043.502 808.677 3051.956 C 821.720 3064.452, 867 3109.274, 867 3109.689 C 867 3109.885, 852.349 3124.970, 834.442 3143.212 L 801.885 3176.377 818.941 3193.433 L 835.996 3210.489 844.359 3201.995 C 848.958 3197.323, 886.628 3158.889, 928.071 3116.587 L 1003.421 3039.674 986.038 3023.008 L 968.654 3006.342 941.065 3034.421 C 925.891 3049.864, 909.689 3066.438, 905.061 3071.250 C 900.432 3076.063, 896.294 3080, 895.864 3080 C 894.979 3080, 829.683 3016.244, 829.164 3014.873 C 828.980 3014.386, 844.955 2997.533, 864.664 2977.423 C 884.374 2957.313, 900.624 2940.520, 900.775 2940.105 C 901.039 2939.381, 867.712 2907, 866.703 2907 C 866.433 2907, 828.836 2945.137, 783.154 2991.750 M 2952.695 2972.805 L 2935.912 2989.610 2938.071 2991.555 C 2939.258 2992.625, 2955.040 3008.644, 2973.141 3027.153 L 3006.052 3060.806 3023.067 3140.611 C 3032.426 3184.504, 3040.191 3220.524, 3040.323 3220.656 C 3040.455 3220.788, 3049.380 3212.111, 3060.157 3201.375 L 3079.750 3181.853 3066.407 3129.228 C 3059.069 3100.284, 3053.162 3076.523, 3053.282 3076.426 C 3053.402 3076.329, 3076.900 3082.485, 3105.500 3090.108 C 3134.100 3097.730, 3158.054 3103.861, 3158.731 3103.733 C 3160.767 3103.348, 3199.190 3065.781, 3198.312 3065.034 C 3197.866 3064.654, 3162.230 3056.054, 3119.123 3045.922 L 3040.746 3027.500 3005.728 2991.750 C 2986.469 2972.088, 2970.434 2956, 2970.095 2956 C 2969.755 2956, 2961.926 2963.562, 2952.695 2972.805 M 2845.813 3177.470 C 2838.076 3179.601, 2832.165 3182.953, 2825.872 3188.779 C 2819.014 3195.128, 2815.552 3200.551, 2812.884 3209.125 C 2809.181 3221.024, 2810.982 3236.468, 2817.338 3247.314 C 2820.650 3252.966, 2830.548 3262.119, 2836.423 3264.963 C 2868.263 3280.376, 2905 3257.896, 2905 3223 C 2905 3197.071, 2883.455 3175.762, 2857.568 3176.089 C 2853.681 3176.139, 2848.391 3176.760, 2845.813 3177.470 M 1066.265 3206.542 C 1057.966 3208.776, 1051.056 3212.784, 1044.920 3218.920 C 1015.427 3248.413, 1036.237 3299, 1077.863 3299 C 1104.632 3299, 1125 3278.685, 1125 3251.984 C 1125 3238.389, 1120.048 3226.995, 1110.092 3217.683 C 1098.627 3206.958, 1081.182 3202.524, 1066.265 3206.542 M 2611 3222.963 C 2597.552 3229.412, 2590.610 3233.259, 2590.818 3234.147 C 2590.994 3234.891, 2604 3262.500, 2619.721 3295.500 C 2654.523 3368.551, 2655.058 3369.709, 2659.586 3381.797 C 2662.954 3390.789, 2663.189 3392.123, 2662.787 3400 C 2662.450 3406.615, 2661.776 3409.626, 2659.748 3413.576 C 2652.565 3427.568, 2628.480 3440.933, 2610.355 3440.985 C 2598.940 3441.018, 2586.506 3434.680, 2579.477 3425.244 C 2575.326 3419.674, 2557.927 3384.582, 2527.426 3320.266 C 2515.367 3294.838, 2505.189 3274.025, 2504.808 3274.016 C 2503.863 3273.994, 2463.698 3292.993, 2462.711 3293.929 C 2461.980 3294.623, 2505.542 3387.250, 2522.549 3421.164 C 2540.125 3456.212, 2550.383 3469.289, 2567.137 3478.009 C 2578.798 3484.078, 2589.787 3486.341, 2604.500 3485.702 C 2618.230 3485.107, 2627.423 3482.752, 2644.787 3475.385 C 2676.186 3462.063, 2694.959 3447.033, 2704.601 3427.500 C 2716.355 3403.690, 2714.299 3385.327, 2695.086 3342.500 C 2680.821 3310.702, 2633.662 3213.003, 2632.608 3213.066 C 2631.999 3213.102, 2622.275 3217.556, 2611 3222.963 M 1260.780 3351.201 C 1236.185 3411.807, 1216.243 3461.576, 1216.466 3461.799 C 1217.044 3462.378, 1260.356 3479.992, 1260.539 3479.723 C 1260.622 3479.600, 1269.395 3458.012, 1280.034 3431.750 C 1290.674 3405.488, 1299.856 3383.998, 1300.439 3383.996 C 1301.314 3383.993, 1385.721 3417.818, 1386.857 3418.626 C 1387.053 3418.766, 1378.395 3440.587, 1367.618 3467.118 C 1356.840 3493.648, 1348.130 3515.440, 1348.261 3515.543 C 1348.968 3516.100, 1391.284 3533, 1391.970 3533 C 1392.419 3533, 1393.007 3532.438, 1393.278 3531.750 C 1393.549 3531.063, 1413.622 3481.605, 1437.885 3421.843 C 1462.148 3362.082, 1482 3313.011, 1482 3312.796 C 1482 3312.144, 1438.082 3294.582, 1437.642 3295.058 C 1437.418 3295.301, 1429.486 3314.625, 1420.015 3338 C 1410.544 3361.375, 1402.623 3380.681, 1402.411 3380.903 C 1402.001 3381.333, 1317.008 3347.169, 1315.763 3346.074 C 1315.357 3345.717, 1322.876 3326.096, 1332.471 3302.471 C 1342.066 3278.846, 1349.598 3259.221, 1349.209 3258.859 C 1348.605 3258.298, 1306.498 3240.994, 1305.761 3241.003 C 1305.617 3241.005, 1285.376 3290.594, 1260.780 3351.201 M 2389.762 3316.359 C 2377.806 3320.287, 2368.018 3323.905, 2368.012 3324.400 C 2367.997 3325.491, 2441.023 3549.331, 2441.580 3549.903 C 2441.796 3550.125, 2452.092 3547.004, 2464.459 3542.969 C 2485.106 3536.232, 2486.902 3535.463, 2486.414 3533.566 C 2484.032 3524.302, 2413.171 3309.582, 2412.444 3309.424 C 2411.925 3309.311, 2401.718 3312.432, 2389.762 3316.359 M 1586.334 3345.412 C 1552.474 3351.882, 1525.106 3373.682, 1509.466 3406.640 C 1500.444 3425.651, 1493.420 3453.790, 1492.346 3475.221 C 1489.789 3526.261, 1517.087 3568.159, 1562.789 3583.341 C 1590.278 3592.473, 1617.483 3592.650, 1638.720 3583.835 C 1656.824 3576.321, 1674.065 3560.358, 1685.956 3540.099 C 1688.541 3535.694, 1688.884 3534.477, 1687.813 3533.502 C 1685.973 3531.826, 1648.388 3509.999, 1647.350 3510.004 C 1646.882 3510.006, 1645.028 3512.855, 1643.228 3516.336 C 1628.051 3545.690, 1598.537 3555.926, 1570.002 3541.732 C 1557.618 3535.572, 1546.426 3521.243, 1542.872 3507 C 1540.465 3497.350, 1541.202 3473.837, 1544.394 3458.500 C 1547.460 3443.765, 1552.492 3427.927, 1556.838 3419.329 C 1569.989 3393.312, 1592.926 3381.186, 1619.054 3386.437 C 1642.546 3391.158, 1657.988 3406.683, 1661.216 3428.824 L 1662.407 3437 1686.704 3437 C 1705.491 3437, 1710.993 3436.717, 1710.969 3435.750 C 1710.875 3431.922, 1708.796 3418.816, 1707.403 3413.260 C 1699.007 3379.781, 1672.866 3356.620, 1633 3347.337 C 1619.782 3344.260, 1597.232 3343.329, 1586.334 3345.412 M 1766.531 3380.260 C 1766.153 3381.434, 1757.029 3617.326, 1757.349 3617.656 C 1757.432 3617.741, 1767.513 3618.140, 1779.750 3618.542 C 1799.673 3619.196, 1802 3619.107, 1802 3617.692 C 1802 3609.333, 1809.167 3434.499, 1809.524 3434.142 C 1809.786 3433.881, 1810 3434.131, 1810 3434.698 C 1810 3436.363, 1848.936 3620.269, 1849.383 3620.716 C 1849.859 3621.192, 1895.142 3623.239, 1895.437 3622.798 C 1895.546 3622.634, 1907.480 3582, 1921.957 3532.500 C 1936.433 3483, 1948.663 3441.600, 1949.135 3440.500 C 1949.646 3439.310, 1949.788 3442.750, 1949.485 3449 C 1948.107 3477.488, 1942.834 3624.167, 1943.176 3624.509 C 1943.392 3624.725, 1953.464 3625.215, 1965.558 3625.598 L 1987.549 3626.295 1992.101 3507.397 C 1994.605 3442.004, 1996.612 3388.417, 1996.560 3388.316 C 1996.283 3387.775, 1925.391 3385.378, 1924.815 3385.891 C 1924.438 3386.226, 1913.733 3420.700, 1901.026 3462.500 C 1872.603 3555.995, 1875.862 3545.863, 1874.982 3543.465 C 1874.586 3542.384, 1866.269 3505.950, 1856.501 3462.500 C 1846.733 3419.050, 1838.462 3383.187, 1838.120 3382.806 C 1837.779 3382.424, 1824.900 3381.639, 1809.500 3381.062 C 1794.100 3380.485, 1778.222 3379.789, 1774.215 3379.516 C 1768.934 3379.156, 1766.820 3379.361, 1766.531 3380.260 M 2211.060 3492.195 C 2187.168 3495.963, 2167.413 3499.254, 2167.160 3499.507 C 2166.506 3500.160, 2173.091 3542.325, 2174.003 3543.328 C 2174.609 3543.994, 2260.542 3531.298, 2261.880 3530.344 C 2262.387 3529.983, 2255.881 3487.803, 2255.105 3486.422 C 2254.693 3485.687, 2240.679 3487.524, 2211.060 3492.195" stroke="none" fill="#2e3191" fill-rule="evenodd"/><path d="M 1877.500 99.004 C 1707.751 105.698, 1547.834 133.076, 1390.500 182.376 C 991.421 307.427, 644.574 567.427, 410.494 917 C 240.899 1170.271, 137.164 1460.289, 108.072 1762.500 C 96.838 1879.200, 96.825 2005.180, 108.035 2120 C 143.109 2479.248, 278.585 2813.029, 503.364 3094 C 568.942 3175.973, 646.301 3256.937, 726.525 3327.564 C 1028.411 3593.334, 1409.168 3752.916, 1809.500 3781.457 C 1853.052 3784.562, 1868.987 3785.158, 1923 3785.701 C 1996.063 3786.436, 2046.455 3784.514, 2113 3778.453 C 2500.375 3743.173, 2863.801 3587.323, 3157.500 3330.536 C 3214.063 3281.081, 3282.081 3213.063, 3331.536 3156.500 C 3386.879 3093.202, 3438.509 3025.400, 3484.302 2955.883 C 3652.170 2701.049, 3753.323 2411.631, 3780.466 2108.500 C 3785.658 2050.513, 3787.378 2009.504, 3787.387 1943.500 C 3787.394 1884.863, 3786.556 1859.435, 3782.956 1809 C 3751.038 1361.843, 3558.726 944.946, 3238.859 629.500 C 2945.516 340.212, 2568.180 158.536, 2161 110.542 C 2123.083 106.073, 2080.709 102.524, 2034.500 99.946 C 2009.814 98.569, 1904.540 97.937, 1877.500 99.004 M 1872 125.011 C 1697.204 132.822, 1536.263 161.685, 1377.636 213.669 C 1129.516 294.980, 908.041 424.972, 712 604.354 C 689.604 624.847, 627.182 687.279, 606.370 710 C 453.398 877.010, 336.896 1061.872, 253.952 1269.210 C 159.148 1506.195, 115.611 1764.472, 127.057 2022 C 143.453 2390.916, 268.786 2740.633, 489.923 3034.500 C 601.308 3182.520, 738.689 3316.441, 888.750 3423.283 C 1150.475 3609.628, 1454.013 3722.802, 1771.500 3752.415 C 1832.198 3758.076, 1874.966 3759.976, 1942.014 3759.990 C 2007.792 3760.003, 2049.192 3758.253, 2109 3752.930 C 2359.344 3730.650, 2605.801 3654.909, 2825.341 3532.785 C 3078.484 3391.968, 3294.405 3193.128, 3455.476 2952.500 C 3677.511 2620.798, 3783.309 2228.486, 3758.461 1829 C 3727.424 1330.018, 3495.313 870.694, 3111.263 548.262 C 2844.042 323.915, 2518.210 181.517, 2172.500 137.994 C 2130.617 132.721, 2091.195 129.185, 2038 125.930 C 2015.845 124.574, 1896.556 123.914, 1872 125.011 M 1897 161.674 C 1670.116 167.863, 1448.207 216.242, 1243 304.254 C 758.924 511.872, 390.122 924.119, 238.129 1427.500 C 194.646 1571.509, 170.076 1719.296, 163.911 1873.909 C 162.400 1911.812, 163.256 2008.116, 165.415 2043 C 180.579 2288.070, 238.894 2511.284, 343.506 2724.684 C 459.604 2961.515, 625.109 3167.868, 831.500 3333.119 C 945.002 3423.997, 1071.887 3502.237, 1203 3562.194 C 1480.700 3689.185, 1784.366 3742.104, 2091 3716.942 C 2381.552 3693.100, 2659.979 3598.903, 2905 3441.549 C 3121.963 3302.214, 3306.270 3117.409, 3445.437 2899.650 C 3674.303 2541.537, 3766.673 2114.618, 3706.947 1691 C 3646.706 1263.727, 3432.412 872.966, 3103.509 590.635 C 2816.041 343.873, 2460.194 195.853, 2084 166.555 C 2024.091 161.889, 1955.118 160.089, 1897 161.674 M 2012.544 264.250 C 2011.834 269.464, 1990 494.077, 1990 496.167 C 1990 497.385, 1994.116 498.058, 2012.202 499.796 C 2024.413 500.969, 2034.494 501.833, 2034.603 501.715 C 2034.713 501.597, 2038.033 467.975, 2041.980 427 C 2045.928 386.025, 2049.460 351.704, 2049.829 350.731 C 2050.294 349.504, 2062.616 373.697, 2090 429.601 C 2117.796 486.345, 2130.093 510.473, 2131.500 511.028 C 2133.454 511.798, 2178.092 516.300, 2178.505 515.769 C 2178.825 515.355, 2201.852 278.531, 2201.597 278.270 C 2200.975 277.631, 2157.818 273.849, 2157.281 274.386 C 2156.936 274.730, 2153.257 309.884, 2149.105 352.506 C 2144.952 395.128, 2141.318 429.997, 2141.027 429.992 C 2140.737 429.988, 2122.550 392.975, 2100.611 347.742 C 2078.672 302.509, 2060.447 265.195, 2060.111 264.821 C 2059.566 264.216, 2020.269 260, 2015.170 260 C 2013.519 260, 2013.011 260.822, 2012.544 264.250 M 1801.228 265.936 C 1775.229 267.462, 1753.667 269, 1753.313 269.353 C 1752.531 270.136, 1765.532 505.865, 1766.406 506.739 C 1767.086 507.419, 1813.174 505.159, 1813.925 504.409 C 1814.363 503.970, 1810.622 429.676, 1809.305 412.663 L 1808.698 404.827 1825.599 405.174 C 1841.746 405.507, 1842.733 405.644, 1847.713 408.259 C 1857.901 413.608, 1863.146 419.713, 1901 470.286 L 1922.500 499.010 1927.500 498.540 C 1930.250 498.282, 1943.208 497.532, 1956.295 496.873 C 1973.588 496.002, 1979.967 495.356, 1979.642 494.509 C 1978.807 492.335, 1939.032 436.464, 1932.619 428.459 C 1921.225 414.235, 1912.541 406.382, 1899.601 398.599 C 1896.104 396.495, 1894.272 394.865, 1895.101 394.594 C 1895.871 394.343, 1899.200 393.400, 1902.500 392.498 C 1926.450 385.958, 1944.677 368.166, 1950.136 346 C 1952.052 338.223, 1951.808 319.090, 1949.691 311 C 1943.560 287.575, 1927.657 271.010, 1905.912 265.397 C 1894.696 262.503, 1856.374 262.700, 1801.228 265.936 M 1600.250 295.855 C 1529.377 310.671, 1516 313.732, 1516 315.132 C 1516 317.152, 1562.748 542.638, 1563.775 545.571 C 1564.482 547.591, 1566.672 547.191, 1652.994 529.243 C 1701.666 519.124, 1741.615 510.718, 1741.770 510.563 C 1742.100 510.234, 1734.149 471.816, 1733.647 471.314 C 1733.460 471.127, 1704.122 477.039, 1668.452 484.452 C 1632.782 491.865, 1603.515 497.834, 1603.415 497.715 C 1603.315 497.597, 1600.323 483.550, 1596.767 466.500 C 1591.054 439.112, 1590.487 435.417, 1591.900 434.785 C 1592.780 434.391, 1618.925 428.823, 1650 422.411 C 1681.075 415.998, 1706.685 410.585, 1706.912 410.381 C 1707.690 409.679, 1699.523 371.754, 1698.512 371.375 C 1697.955 371.166, 1671.644 376.378, 1640.043 382.957 C 1608.441 389.536, 1582.402 394.735, 1582.176 394.510 C 1581.951 394.284, 1579.419 382.785, 1576.549 368.955 C 1573.140 352.526, 1571.707 343.692, 1572.416 343.470 C 1573.012 343.283, 1601.175 337.421, 1635 330.443 C 1668.825 323.465, 1696.673 317.600, 1696.885 317.410 C 1697.233 317.097, 1690.630 283.946, 1689.385 279.750 C 1689.078 278.718, 1687.969 278.050, 1686.683 278.121 C 1685.482 278.187, 1646.588 286.168, 1600.250 295.855 M 1826.196 305.530 C 1814.480 306.214, 1804.607 307.059, 1804.258 307.408 C 1803.617 308.049, 1806.447 365.780, 1807.154 366.487 C 1807.711 367.044, 1855.858 364.196, 1867 362.947 C 1882.486 361.211, 1887.640 359.394, 1893.635 353.556 C 1900.111 347.251, 1902.580 340.113, 1901.667 330.337 C 1900.503 317.870, 1894.232 308.971, 1884.205 305.554 C 1878.667 303.667, 1858.239 303.658, 1826.196 305.530 M 2333.173 313.875 C 2303.109 355.319, 2189.823 513.299, 2189.425 514.334 C 2189.031 515.361, 2192.833 516.722, 2204.700 519.804 C 2229.601 526.271, 2238.043 528.292, 2238.427 527.882 C 2238.623 527.672, 2245.870 517.150, 2254.532 504.500 C 2263.193 491.850, 2270.395 481.359, 2270.537 481.186 C 2270.919 480.721, 2361.383 504.070, 2362.188 504.841 C 2362.566 505.204, 2364.303 518.100, 2366.048 533.500 C 2367.792 548.900, 2369.508 561.764, 2369.860 562.087 C 2370.741 562.895, 2419.972 575.385, 2420.342 574.894 C 2420.649 574.488, 2387.907 320.733, 2387.479 320.203 C 2387.347 320.040, 2376.156 317.059, 2362.609 313.578 L 2337.979 307.250 2333.173 313.875 M 1379.753 357.814 C 1330.942 375.241, 1291.013 389.950, 1291.021 390.500 C 1291.037 391.613, 1303.699 427.032, 1304.293 427.626 C 1304.499 427.832, 1319.390 422.758, 1337.384 416.351 C 1356.158 409.666, 1370.446 405.084, 1370.910 405.600 C 1371.355 406.095, 1386.439 447.893, 1404.428 498.485 C 1422.418 549.077, 1437.264 590.597, 1437.419 590.752 C 1437.755 591.088, 1481.843 575.490, 1482.548 574.786 C 1482.816 574.517, 1468.159 532.535, 1449.975 481.491 C 1431.792 430.448, 1417.272 388.380, 1417.707 388.008 C 1418.143 387.635, 1432.900 382.235, 1450.500 376.008 C 1468.100 369.781, 1482.643 364.576, 1482.819 364.441 C 1483.326 364.051, 1469.681 325.993, 1469.060 326.064 C 1468.752 326.100, 1428.564 340.387, 1379.753 357.814 M 2477.126 347.148 C 2476.629 348.442, 2473.252 356.901, 2469.621 365.947 C 2464.961 377.555, 2463.363 382.606, 2464.188 383.116 C 2464.832 383.514, 2479.447 389.388, 2496.666 396.170 C 2513.885 402.951, 2527.980 408.993, 2527.987 409.596 C 2527.994 410.199, 2511.800 451.368, 2492 501.083 C 2472.200 550.799, 2456.004 591.930, 2456.010 592.487 C 2456.019 593.413, 2499.903 611.457, 2500.523 610.790 C 2500.671 610.631, 2517.085 569.550, 2536.998 519.500 C 2556.912 469.450, 2573.496 428.204, 2573.852 427.841 C 2574.209 427.479, 2589.047 432.992, 2606.826 440.091 C 2624.606 447.191, 2639.276 453, 2639.426 453 C 2640.374 453, 2654.085 415.699, 2653.376 415.050 C 2652.657 414.393, 2618.771 400.816, 2479.264 345.289 C 2478.584 345.018, 2477.622 345.855, 2477.126 347.148 M 2321.736 406.783 C 2307.565 427.457, 2296.315 444.698, 2296.736 445.097 C 2297.579 445.897, 2357.086 461.281, 2357.477 460.800 C 2357.831 460.365, 2348.318 369.982, 2347.874 369.554 C 2347.668 369.356, 2335.906 386.109, 2321.736 406.783 M 1223.016 421.064 C 1212.849 426.477, 1204.421 431.265, 1204.286 431.703 C 1204.151 432.141, 1220.425 463.544, 1240.451 501.486 C 1260.477 539.428, 1276.725 570.608, 1276.558 570.776 C 1276.390 570.943, 1240.555 549.891, 1196.924 523.993 L 1117.596 476.905 1107.048 482.417 C 1080.330 496.378, 1076.505 498.608, 1076.814 500.042 C 1077.177 501.734, 1185.801 708.080, 1186.993 709.345 C 1187.567 709.953, 1223.847 691.811, 1226.847 689.416 C 1227.038 689.263, 1211.133 658.700, 1191.502 621.498 C 1171.872 584.295, 1155.974 553.693, 1156.174 553.492 C 1156.375 553.292, 1190.955 573.402, 1233.019 598.181 C 1275.084 622.961, 1310.253 643.450, 1311.173 643.714 C 1312.514 644.098, 1351.558 624.513, 1354.201 622.130 C 1355.214 621.217, 1244.407 411.527, 1242.824 411.361 C 1242.096 411.285, 1233.182 415.652, 1223.016 421.064 M 2633.500 539.720 C 2603.800 597.845, 2579.500 645.798, 2579.500 646.282 C 2579.500 646.766, 2589.071 652.008, 2600.770 657.930 L 2622.040 668.698 2632.415 648.599 C 2638.122 637.544, 2657.736 599.250, 2676.003 563.500 C 2694.269 527.750, 2714.126 488.976, 2720.128 477.335 L 2731.041 456.171 2709.621 445.085 C 2697.839 438.988, 2688.043 434.008, 2687.850 434.019 C 2687.658 434.029, 2663.200 481.595, 2633.500 539.720 M 2795.500 515.109 C 2780.375 517.288, 2761.319 524.634, 2748.883 533.079 C 2726.696 548.146, 2702.821 579.576, 2691.212 609 C 2685.485 623.516, 2683.598 633.880, 2683.655 650.500 C 2683.699 663.421, 2684.071 666.876, 2686.341 675.429 C 2694.730 707.041, 2718.550 734.232, 2752.953 751.465 C 2772.769 761.391, 2786.502 764.478, 2807.500 763.723 C 2823.952 763.131, 2832.909 761.032, 2846.623 754.556 C 2859.240 748.597, 2866.939 743.181, 2877.858 732.583 C 2912.132 699.318, 2931.326 654.734, 2926.994 618.452 C 2923.909 592.611, 2914.407 573.272, 2895.556 554.469 C 2866.601 525.586, 2828.045 510.419, 2795.500 515.109 M 1008.184 545.107 C 997.560 552.316, 989.073 558.728, 989.324 559.357 C 989.665 560.213, 1120.419 755.579, 1121.413 756.718 C 1121.517 756.838, 1130.705 750.864, 1141.830 743.442 L 1162.057 729.947 1107.614 648.724 C 1077.670 604.051, 1047.845 559.528, 1041.335 549.784 C 1034.826 540.040, 1029.050 532.052, 1028.500 532.034 C 1027.950 532.016, 1018.808 537.898, 1008.184 545.107 M 2800.773 561.555 C 2782.671 565.943, 2764.112 581.862, 2748.667 606.249 C 2726.136 641.825, 2726.595 675.757, 2749.922 699.076 C 2757.537 706.688, 2767.535 712.887, 2777.500 716.175 C 2786.477 719.138, 2802.352 719.341, 2811.457 716.610 C 2829.909 711.077, 2845.722 697.657, 2860.711 674.812 C 2880.817 644.170, 2885.090 618.334, 2873.720 596.158 C 2865.530 580.185, 2847.626 566.225, 2829.356 561.567 C 2821.915 559.670, 2808.573 559.664, 2800.773 561.555 M 869.777 645.986 C 858.386 656.449, 849.264 665.571, 849.504 666.255 C 850.577 669.308, 872.149 770.184, 871.803 770.530 C 871.590 770.744, 848.291 763.944, 820.028 755.421 C 791.765 746.898, 768.044 740.153, 767.315 740.432 C 764.937 741.345, 726.119 777.482, 726.819 778.132 C 727.194 778.480, 761.925 788.106, 804 799.522 C 846.075 810.939, 881.216 820.476, 882.091 820.715 C 882.966 820.954, 898.884 837.755, 917.465 858.050 C 950.963 894.638, 951.267 894.935, 953.429 893.225 C 954.629 892.276, 962.660 885.029, 971.275 877.119 C 986.731 862.931, 986.917 862.710, 985.220 860.575 C 984.274 859.384, 969.325 842.968, 952 824.094 C 934.675 805.220, 920.175 789.040, 919.777 788.139 C 919.380 787.238, 912.732 750.950, 905.006 707.500 C 897.279 664.050, 890.851 628.154, 890.722 627.730 C 890.593 627.307, 881.167 635.522, 869.777 645.986 M 2995.217 661.250 C 2926.001 735.731, 2852.012 816.536, 2852.284 817.351 C 2852.462 817.887, 2859.782 824.949, 2868.549 833.046 L 2884.490 847.766 2887.495 844.400 C 2905.565 824.156, 2988.570 735.216, 2988.787 735.864 C 2988.945 736.337, 2981.374 776.273, 2971.962 824.611 L 2954.850 912.500 2961.715 919 C 2965.491 922.575, 2973.533 930.077, 2979.587 935.672 L 2990.592 945.844 3071.046 858.730 C 3115.296 810.818, 3151.625 771.134, 3151.778 770.544 C 3151.931 769.955, 3144.800 762.777, 3135.933 754.593 L 3119.810 739.714 3115.029 744.607 C 3112.399 747.298, 3088.072 773.544, 3060.970 802.931 C 3032.396 833.913, 3011.941 855.340, 3012.283 853.931 C 3012.609 852.594, 3020.804 811.485, 3030.495 762.577 L 3048.115 673.654 3045.308 670.981 C 3034.321 660.525, 3014.081 642, 3013.641 642 C 3013.347 642, 3005.056 650.663, 2995.217 661.250 M 1915.500 661.706 C 1827.738 666.508, 1738.467 698.025, 1665.821 749.854 C 1636.697 770.633, 1598.567 805.778, 1577.445 831.313 C 1510.299 912.484, 1473.234 1004.610, 1465.924 1108.500 C 1464.458 1129.334, 1465.253 1170.832, 1467.495 1190.500 C 1472.475 1234.187, 1482.912 1276.396, 1498.650 1316.500 C 1505.966 1335.141, 1522.831 1369.232, 1533.157 1386.251 C 1603.333 1501.918, 1716.592 1582.003, 1848 1608.877 C 1917.177 1623.024, 1989.567 1621.520, 2058.500 1604.504 C 2178.825 1574.800, 2283.362 1499.129, 2349.306 1394 C 2390.694 1328.018, 2414.566 1255.364, 2421.098 1175.500 C 2422.619 1156.909, 2421.715 1103.871, 2419.581 1086.500 C 2414.230 1042.932, 2403.642 1000.667, 2388.518 962.500 C 2382.530 947.387, 2367.325 915.915, 2359.048 901.500 C 2337.352 863.716, 2311.068 830.043, 2277.855 797.483 C 2195.990 717.227, 2091.609 670.463, 1975.500 662.025 C 1962.644 661.091, 1929.924 660.917, 1915.500 661.706 M 650.503 867.698 C 617.226 907.708, 590 940.728, 590 941.075 C 590 941.642, 614.786 962.658, 619.133 965.775 C 620.730 966.921, 623.201 964.308, 643.506 939.993 L 666.102 912.935 668.966 915.217 C 670.542 916.473, 704.684 944.837, 744.838 978.250 C 784.993 1011.663, 818.106 1039, 818.425 1039 C 819.418 1039, 849.103 1002.804, 848.793 1001.970 C 848.632 1001.536, 814.622 973.033, 773.216 938.631 C 731.810 904.229, 697.893 875.793, 697.845 875.441 C 697.797 875.088, 707.600 862.921, 719.628 848.402 C 731.657 833.883, 741.581 821.666, 741.682 821.252 C 741.783 820.839, 734.922 814.752, 726.436 807.726 L 711.007 794.953 650.503 867.698 M 3120.204 913.482 C 3054.042 933.984, 2999.673 950.994, 2999.384 951.283 C 2998.592 952.075, 3029.874 991, 3031.303 991 C 3031.986 991, 3043.999 987.175, 3058 982.500 C 3072.001 977.825, 3083.968 974, 3084.594 974 C 3085.415 974, 3130.853 1030.310, 3143.288 1046.738 C 3143.936 1047.594, 3139.835 1055.440, 3129.958 1072.238 C 3122.112 1085.582, 3115.515 1096.829, 3115.299 1097.230 C 3115.006 1097.775, 3142.194 1133.014, 3147.010 1138.331 C 3147.627 1139.013, 3272.498 922.077, 3274.518 916.813 C 3275.355 914.633, 3244.669 875.956, 3242.219 876.103 C 3241.273 876.159, 3186.367 892.980, 3120.204 913.482 M 3169.250 945.322 C 3146.012 953.110, 3127 959.711, 3127 959.991 C 3127.001 960.271, 3135.833 971.657, 3146.627 985.292 C 3164.106 1007.373, 3166.389 1009.888, 3167.499 1008.292 C 3169.071 1006.030, 3211.313 936.152, 3212.898 933.191 C 3213.823 931.463, 3213.799 931.017, 3212.785 931.081 C 3212.078 931.126, 3192.488 937.534, 3169.250 945.322 M 556.240 992.224 C 548.989 1002.826, 543.016 1011.878, 542.966 1012.341 C 542.892 1013.027, 624.544 1069.352, 721.552 1135.534 L 739.604 1147.849 753.297 1127.753 C 760.829 1116.700, 766.880 1107.563, 766.745 1107.448 C 765.326 1106.239, 571.307 973.671, 570.507 973.364 C 569.910 973.135, 563.490 981.622, 556.240 992.224 M 3253 1089.612 C 3196.554 1122.676, 3151.642 1149.590, 3151.821 1150.246 C 3152.542 1152.895, 3235.561 1294, 3236.399 1294 C 3237.071 1294, 3268.997 1275.878, 3270.792 1274.477 C 3270.953 1274.351, 3257.503 1251.006, 3240.902 1222.598 C 3224.302 1194.189, 3210.896 1170.794, 3211.110 1170.608 C 3211.325 1170.422, 3249.075 1148.334, 3295 1121.524 C 3340.925 1094.714, 3378.851 1072.455, 3379.279 1072.060 C 3380.108 1071.296, 3356.840 1030.726, 3355.368 1030.368 C 3354.891 1030.252, 3308.825 1056.911, 3253 1089.612 M 532.477 1082.920 C 513.796 1085.919, 497.009 1095.048, 482.422 1110.142 C 472.878 1120.017, 467.600 1127.589, 461.054 1140.795 C 451.824 1159.420, 448.551 1172.960, 448.677 1192 C 448.751 1203.062, 449.227 1207.253, 451.315 1215.206 C 456.635 1235.474, 466.074 1251.014, 482.995 1267.361 C 500.409 1284.185, 524.196 1298.474, 548 1306.409 C 588.408 1319.878, 628.134 1312.488, 656.024 1286.314 C 670.361 1272.859, 681.060 1256.234, 687.760 1237 C 692.108 1224.519, 693.518 1215.945, 693.353 1203 C 693.052 1179.528, 684.869 1161.035, 664.928 1138.762 L 658.831 1131.953 640.926 1149.098 L 623.021 1166.243 630.261 1173.964 C 642.972 1187.521, 648.329 1199.095, 648.329 1213 C 648.329 1240.367, 626.472 1263.680, 598.916 1265.706 C 584.915 1266.735, 568.455 1262.320, 547.866 1252.014 C 530.546 1243.344, 519.696 1235.871, 509.491 1225.582 C 499.160 1215.166, 494.861 1207.721, 492.409 1196 C 489.528 1182.225, 492.621 1167.361, 501.065 1154.400 C 512.793 1136.399, 531.605 1128.132, 552.025 1132.005 C 554.939 1132.557, 557.438 1132.895, 557.577 1132.755 C 557.973 1132.356, 570 1087.259, 570 1086.173 C 570 1083.765, 542.215 1081.356, 532.477 1082.920 M 3435.500 1323.065 C 3362.643 1348.427, 3353.126 1352.021, 3335.525 1360.820 C 3324.055 1366.555, 3321.616 1368.246, 3314.500 1375.404 C 3301.031 1388.951, 3295.136 1402.985, 3294.295 1423.500 C 3293.894 1433.294, 3294.202 1437.430, 3295.971 1446 C 3300.577 1468.322, 3310.798 1493.954, 3320.531 1507.595 C 3327.040 1516.718, 3338.619 1527.032, 3347.151 1531.309 C 3357.125 1536.308, 3365.558 1538.276, 3377 1538.272 C 3388.507 1538.269, 3398.430 1536.328, 3419.500 1529.958 C 3435.230 1525.203, 3561.706 1481.627, 3562.719 1480.614 C 3563.288 1480.046, 3548.020 1435, 3547.259 1435 C 3547 1435, 3516.124 1445.617, 3478.644 1458.594 C 3387.347 1490.205, 3382.558 1491.536, 3370.841 1488.542 C 3357.191 1485.055, 3347.882 1474.828, 3342.131 1457 C 3333.891 1431.456, 3340.691 1412.204, 3361.671 1401.679 C 3370.455 1397.272, 3377.771 1394.624, 3453.500 1368.448 C 3488.150 1356.471, 3516.609 1346.599, 3516.743 1346.510 C 3516.876 1346.421, 3513.469 1336.258, 3509.173 1323.924 C 3504.170 1309.564, 3500.846 1301.435, 3499.930 1301.318 C 3499.144 1301.217, 3470.150 1311.004, 3435.500 1323.065 M 348.703 1404.742 C 345.063 1417.251, 342.403 1427.772, 342.792 1428.123 C 343.182 1428.474, 363.300 1434.481, 387.500 1441.471 C 411.700 1448.461, 431.612 1454.289, 431.749 1454.422 C 432.378 1455.034, 406.153 1543.449, 405.254 1543.749 C 404.693 1543.936, 384.758 1538.443, 360.954 1531.544 C 337.149 1524.645, 317.184 1519.001, 316.586 1519.003 C 315.779 1519.005, 303.476 1558.975, 302.632 1564.337 C 302.530 1564.983, 530.928 1632.046, 531.676 1631.589 C 532.590 1631.030, 544.942 1585.570, 544.324 1585.038 C 543.871 1584.648, 521.900 1578.115, 495.500 1570.520 C 469.100 1562.925, 446.995 1556.438, 446.378 1556.105 C 445.619 1555.696, 449.430 1541.122, 458.162 1511.049 C 465.260 1486.602, 471.230 1466.437, 471.428 1466.238 C 471.627 1466.040, 493.630 1472.205, 520.325 1479.939 C 566.116 1493.205, 572 1494.747, 572 1493.481 C 572 1493.195, 574.905 1482.975, 578.456 1470.770 C 582.006 1458.564, 584.732 1448.399, 584.513 1448.180 C 583.980 1447.646, 357.801 1382.044, 356.411 1382.019 C 355.812 1382.009, 352.343 1392.234, 348.703 1404.742 M 2515.157 1405.746 L 2505.813 1406.078 2506.408 1898.289 C 2506.735 2169.005, 2507.268 2451.963, 2507.592 2527.084 L 2508.182 2663.667 2116.425 2664.334 C 1900.958 2664.700, 1646.040 2665, 1549.940 2665 L 1375.213 2665 1374.626 2648.750 C 1374.303 2639.813, 1373.769 2357.100, 1373.441 2020.500 C 1373.112 1683.900, 1372.495 1408.139, 1372.070 1407.698 C 1371.644 1407.257, 1237.650 1407.216, 1074.306 1407.609 L 777.316 1408.322 765.701 1437.411 C 710.714 1575.129, 678.680 1697.769, 667.072 1815 C 656.485 1921.933, 663.534 2056.812, 686.091 2178.894 C 754.125 2547.105, 959.697 2852.343, 1262.996 3035.492 C 1305.410 3061.104, 1365.708 3092.493, 1410 3112.016 C 1539.726 3169.199, 1680.090 3205.358, 1821 3217.894 C 1866.150 3221.910, 1881.393 3222.500, 1940 3222.498 C 1996.530 3222.496, 2013.384 3221.898, 2054.500 3218.437 C 2315.230 3196.492, 2557.135 3101.476, 2754.500 2943.490 C 2794.099 2911.792, 2816.079 2891.989, 2856.560 2851.536 C 2889.854 2818.266, 2907.865 2798.700, 2933.347 2768.118 C 3043.962 2635.363, 3126.425 2478.450, 3174.444 2309.349 C 3202.863 2209.270, 3219.147 2106.923, 3223.981 1998 C 3225.275 1968.850, 3225.272 1909.369, 3223.977 1882 C 3216.996 1734.565, 3184.121 1589.877, 3122.241 1434.250 L 3110.610 1405 2817.555 1405.208 C 2656.375 1405.322, 2520.296 1405.564, 2515.157 1405.746 M 1464.249 1992.750 L 1464.500 2578.500 1942.781 2578.751 C 2324.882 2578.952, 2421.157 2578.750, 2421.537 2577.751 C 2421.798 2577.063, 2421.896 2313.721, 2421.756 1992.547 L 2421.500 1408.594 2414.067 1421.047 C 2380.782 1476.806, 2334.678 1529.255, 2283 1570.150 C 2138.581 1684.435, 1944.819 1718.152, 1769.500 1659.506 C 1644.895 1617.824, 1540.150 1533.015, 1471.532 1418.250 C 1467.833 1412.063, 1464.624 1407, 1464.402 1407 C 1464.180 1407, 1464.111 1670.588, 1464.249 1992.750 M 3461.500 1570.876 L 3346.500 1591.585 3346.818 1594.043 C 3347.391 1598.468, 3354.179 1635.492, 3354.474 1635.797 C 3354.632 1635.960, 3388.649 1630.007, 3430.067 1622.567 C 3471.486 1615.128, 3505.506 1609.173, 3505.668 1609.334 C 3505.898 1609.565, 3382.992 1720.309, 3373.416 1728.500 L 3371.078 1730.500 3375.289 1753.671 C 3377.605 1766.415, 3379.812 1777.152, 3380.194 1777.532 C 3380.913 1778.246, 3612.930 1737.106, 3614.236 1736.033 C 3614.993 1735.411, 3607.799 1693.465, 3606.755 1692.422 C 3606.435 1692.101, 3571.923 1697.984, 3530.063 1705.495 C 3488.203 1713.006, 3453.545 1719.005, 3453.045 1718.826 C 3452.545 1718.647, 3482.743 1691.275, 3520.152 1658 C 3557.560 1624.725, 3588.557 1597.031, 3589.033 1596.458 C 3589.537 1595.852, 3588.247 1586.290, 3585.950 1573.599 C 3583.777 1561.599, 3582 1551.380, 3582 1550.890 C 3582 1550.401, 3580.762 1550.038, 3579.250 1550.084 C 3577.738 1550.130, 3524.750 1559.486, 3461.500 1570.876 M 287.978 1634.968 C 287.965 1635.260, 286.689 1645.298, 285.142 1657.272 L 282.329 1679.045 284.415 1679.513 C 286.871 1680.064, 435.564 1698.981, 437.904 1699.040 C 440.497 1699.105, 437.786 1700.364, 352.732 1738.606 C 308.054 1758.693, 271.138 1775.484, 270.696 1775.918 C 269.964 1776.638, 263.693 1822.057, 264.257 1822.567 C 264.812 1823.069, 500.478 1852.855, 500.862 1852.471 C 501.348 1851.986, 506.987 1808.654, 506.613 1808.280 C 506.476 1808.143, 472.088 1803.653, 430.195 1798.302 C 388.302 1792.951, 354.358 1788.279, 354.763 1787.918 C 355.168 1787.558, 391.950 1770.733, 436.500 1750.529 C 481.050 1730.325, 517.862 1713.457, 518.304 1713.044 C 519.165 1712.238, 525.220 1667.161, 524.683 1665.550 C 524.351 1664.554, 288.018 1634.019, 287.978 1634.968 M 3498 1804.636 C 3434.475 1809.246, 3382.034 1813.188, 3381.465 1813.396 C 3380.763 1813.651, 3380.974 1821.395, 3382.121 1837.458 C 3383.051 1850.486, 3383.966 1861.276, 3384.156 1861.437 C 3384.621 1861.833, 3621.395 1844.875, 3621.895 1844.410 C 3622.258 1844.073, 3620.798 1820.599, 3619.335 1803.250 C 3618.742 1796.213, 3618.647 1796.004, 3616.112 1796.126 C 3614.675 1796.196, 3561.525 1800.025, 3498 1804.636 M 3506.708 1914.544 C 3440.822 1936.108, 3386.681 1953.986, 3386.394 1954.273 C 3386.107 1954.560, 3385.788 1966.357, 3385.686 1980.488 L 3385.500 2006.181 3503 2051.888 L 3620.500 2097.594 3621.145 2091.547 C 3621.500 2088.221, 3621.925 2076.783, 3622.088 2066.129 L 3622.385 2046.758 3619.943 2045.539 C 3618.599 2044.868, 3579.586 2030.654, 3533.246 2013.952 C 3486.907 1997.249, 3449.557 1983.274, 3450.246 1982.896 C 3450.936 1982.517, 3489.300 1970.439, 3535.500 1956.055 C 3581.700 1941.672, 3620.912 1929.457, 3622.638 1928.911 L 3625.777 1927.919 3626.508 1902.568 C 3626.910 1888.625, 3627.073 1876.794, 3626.869 1876.277 C 3626.666 1875.761, 3572.594 1892.981, 3506.708 1914.544 M 263.702 1879.679 C 263.027 1880.779, 262.403 1926.736, 263.054 1927.387 C 263.897 1928.231, 499.943 1933.390, 500.752 1932.583 C 501.164 1932.173, 501.642 1921.342, 501.816 1908.514 L 502.131 1885.190 493.816 1884.623 C 489.242 1884.312, 441.175 1883.147, 387 1882.035 C 332.825 1880.923, 283.034 1879.754, 276.353 1879.436 C 269.672 1879.118, 263.979 1879.228, 263.702 1879.679 M 374.036 1976.159 C 311.081 1982.174, 259.461 1987.206, 259.325 1987.341 C 259.004 1987.662, 265.829 2059.182, 266.210 2059.481 C 266.369 2059.606, 303.279 2065.723, 348.230 2073.074 C 393.182 2080.425, 429.632 2086.741, 429.230 2087.110 C 428.829 2087.480, 394.075 2100.486, 352 2116.013 C 309.925 2131.540, 275.174 2144.537, 274.775 2144.897 C 274.035 2145.564, 280.320 2215.654, 281.199 2216.533 C 281.854 2217.188, 517.329 2194.924, 518.150 2194.129 C 518.804 2193.497, 515.104 2150.907, 514.320 2150.034 C 514.090 2149.778, 472.863 2153.455, 422.705 2158.205 C 372.547 2162.955, 331.410 2166.744, 331.291 2166.624 C 331.172 2166.505, 370.995 2152.291, 419.787 2135.037 C 468.579 2117.784, 508.871 2103.349, 509.324 2102.960 C 510.244 2102.170, 506.279 2057.890, 505.191 2056.819 C 504.811 2056.444, 462.425 2049.662, 411 2041.747 C 335.107 2030.066, 318.442 2027.234, 322.500 2026.710 C 325.250 2026.355, 366.425 2022.402, 414 2017.926 C 461.575 2013.450, 500.682 2009.615, 500.905 2009.405 C 501.334 2009.001, 498.277 1973.792, 497.332 1968.250 C 496.807 1965.172, 496.558 1965.006, 492.639 1965.111 C 490.362 1965.173, 436.991 1970.144, 374.036 1976.159 M 3379.540 2101.179 C 3378.483 2105.770, 3350 2275.128, 3350 2276.820 C 3350 2278.289, 3352.960 2279.055, 3369.559 2281.883 C 3380.317 2283.715, 3389.260 2285.054, 3389.433 2284.857 C 3389.605 2284.661, 3394.640 2255.547, 3400.620 2220.160 C 3406.600 2184.773, 3411.755 2155.396, 3412.076 2154.878 C 3412.939 2153.480, 3474.996 2164.173, 3474.998 2165.720 C 3474.999 2166.391, 3470.725 2192.120, 3465.500 2222.896 C 3455.924 2279.302, 3455.387 2282.991, 3456.750 2283.012 C 3457.162 2283.018, 3465.375 2284.363, 3475 2286 C 3484.625 2287.637, 3493.205 2288.982, 3494.066 2288.988 C 3495.359 2288.998, 3497.356 2278.778, 3505.496 2230.500 C 3514.823 2175.175, 3515.471 2172, 3517.429 2172.001 C 3519.890 2172.002, 3566.241 2179.907, 3566.745 2180.412 C 3566.937 2180.603, 3562.303 2208.970, 3556.449 2243.449 C 3550.594 2277.928, 3546.070 2306.404, 3546.395 2306.729 C 3547.030 2307.363, 3585.307 2313.963, 3585.788 2313.521 C 3586.573 2312.801, 3615.282 2139.949, 3614.711 2139.378 C 3614.347 2139.014, 3562.625 2130.012, 3499.774 2119.374 C 3436.923 2108.736, 3384.279 2099.768, 3382.787 2099.445 C 3380.532 2098.957, 3379.984 2099.249, 3379.540 2101.179 M 412 2248.177 C 348.475 2261.935, 296.195 2273.486, 295.823 2273.846 C 295.254 2274.395, 304.558 2319.891, 305.413 2320.747 C 305.668 2321.002, 538.215 2271.025, 538.694 2270.613 C 538.800 2270.521, 536.664 2260.108, 533.947 2247.473 C 531.230 2234.838, 529.005 2224.162, 529.003 2223.750 C 528.999 2222.745, 540.810 2220.279, 412 2248.177 M 3343.719 2302.709 C 3341.826 2306.040, 3328.963 2347.336, 3329.638 2347.916 C 3330.112 2348.324, 3350.975 2355.327, 3376 2363.479 C 3401.025 2371.631, 3421.849 2378.605, 3422.277 2378.977 C 3423.256 2379.830, 3416.697 2398.885, 3413.199 2405.348 C 3409.463 2412.252, 3402.292 2418.275, 3393.407 2421.975 C 3387.024 2424.631, 3344.750 2437.075, 3306.500 2447.555 C 3301 2449.061, 3295.977 2450.791, 3295.338 2451.397 C 3294.194 2452.483, 3276.693 2505.027, 3277.280 2505.614 C 3277.772 2506.105, 3341.465 2490.251, 3354.483 2486.396 C 3361.074 2484.445, 3369.548 2481.537, 3373.315 2479.934 C 3379.450 2477.323, 3392.137 2469.525, 3399.085 2464.094 L 3401.671 2462.073 3401.240 2474.787 C 3400.930 2483.945, 3401.247 2489.559, 3402.375 2494.865 C 3406.266 2513.172, 3417.897 2527.935, 3435.067 2536.360 C 3446.828 2542.131, 3453.882 2544.033, 3466.042 2544.713 C 3473.754 2545.145, 3477.207 2544.838, 3484.042 2543.113 C 3496.635 2539.936, 3502.470 2536.691, 3511.073 2528.080 C 3519.223 2519.923, 3524.133 2511.975, 3530.583 2496.500 C 3533.922 2488.489, 3571.205 2376.858, 3570.702 2376.378 C 3570.525 2376.210, 3351.974 2304.333, 3346.334 2302.588 C 3345.143 2302.220, 3343.966 2302.274, 3343.719 2302.709 M 430 2341.485 C 368.125 2361.986, 317.568 2379.151, 317.651 2379.630 C 317.734 2380.108, 321.060 2390.536, 325.042 2402.803 C 330.531 2419.713, 332.622 2424.975, 333.687 2424.567 C 339.481 2422.343, 421.202 2395.880, 421.432 2396.152 C 421.594 2396.344, 428.154 2415.850, 436.010 2439.500 C 443.867 2463.150, 450.486 2483.021, 450.719 2483.658 C 450.991 2484.401, 435.180 2490.052, 406.519 2499.455 C 363.753 2513.484, 361.923 2514.185, 362.563 2516.297 C 366.295 2528.601, 376.375 2558.685, 376.983 2559.333 C 377.533 2559.918, 601.839 2486.957, 603.692 2485.590 C 603.798 2485.512, 600.511 2475.066, 596.387 2462.377 L 588.890 2439.306 539.695 2455.523 C 512.638 2464.443, 490.219 2471.462, 489.875 2471.121 C 488.973 2470.225, 461 2385.797, 461 2383.971 C 461 2382.838, 473.595 2378.311, 509.569 2366.513 C 536.282 2357.753, 558.354 2350.237, 558.617 2349.811 C 559.306 2348.696, 544.606 2304.681, 543.459 2304.425 C 542.932 2304.307, 491.875 2320.984, 430 2341.485 M 3459.454 2392.299 C 3456.267 2400.875, 3442.265 2445.906, 3440.431 2453.477 C 3437.603 2465.150, 3437.478 2467.888, 3439.471 2474.568 C 3441.478 2481.294, 3445.659 2486.007, 3453.175 2490.013 C 3458.478 2492.840, 3460.801 2493.453, 3467.556 2493.807 C 3474.714 2494.183, 3476.179 2493.943, 3480.705 2491.650 C 3486.375 2488.777, 3490.904 2483.845, 3494.132 2477.031 C 3497.393 2470.145, 3516.931 2410.591, 3516.168 2409.862 C 3515.801 2409.511, 3505.600 2405.997, 3493.500 2402.054 C 3481.400 2398.110, 3468.890 2394.032, 3465.700 2392.991 C 3461.400 2391.587, 3459.784 2391.408, 3459.454 2392.299 M 3293.669 2531.594 C 3266.445 2536.514, 3243.986 2556.656, 3227.209 2591.197 C 3217.109 2611.994, 3212.865 2627.953, 3212.904 2644.998 C 3212.941 2661.328, 3217.437 2674.528, 3227.485 2687.809 C 3240.209 2704.627, 3263.219 2716, 3284.520 2716 C 3298.195 2716, 3310.901 2711.961, 3322.730 2703.855 C 3330.039 2698.846, 3345.840 2683.159, 3360.859 2666 C 3387.789 2635.234, 3396.204 2629.127, 3408.496 2631.433 C 3413.274 2632.330, 3419.681 2638.190, 3420.975 2642.848 C 3425.625 2659.592, 3413.364 2689.503, 3397.469 2700.188 C 3391.034 2704.514, 3385.710 2705.573, 3375.615 2704.537 C 3371.702 2704.136, 3367.428 2703.738, 3366.118 2703.654 C 3363.948 2703.514, 3362.867 2705.430, 3353.978 2725.179 L 3344.221 2746.858 3349.361 2748.908 C 3358.553 2752.577, 3366.140 2754, 3376.500 2754 C 3388.686 2754, 3395.710 2752.346, 3407 2746.818 C 3414.084 2743.350, 3417.178 2740.977, 3425.571 2732.578 C 3436.652 2721.488, 3442.706 2712.879, 3450.589 2697 C 3460.372 2677.292, 3464 2663.701, 3464 2646.752 C 3464 2627.680, 3458.624 2614.437, 3445.594 2601.406 C 3433.001 2588.814, 3419.216 2583, 3401.950 2583 C 3391.783 2583, 3380.853 2585.531, 3372.236 2589.881 C 3359.903 2596.106, 3344.837 2610.271, 3318.120 2640.757 C 3297.686 2664.073, 3289.362 2669.078, 3277.081 2665.432 C 3270.277 2663.411, 3263.051 2656.803, 3259.892 2649.714 C 3257.980 2645.421, 3257.575 2642.822, 3257.601 2635 C 3257.629 2626.785, 3258.070 2624.334, 3260.863 2616.883 C 3266.929 2600.699, 3277.252 2587.864, 3288.471 2582.557 C 3298.159 2577.974, 3313.185 2577.325, 3325.807 2580.945 C 3328.714 2581.778, 3329.190 2581.634, 3329.943 2579.693 C 3330.411 2578.487, 3334.261 2568.584, 3338.499 2557.686 C 3342.737 2546.788, 3346.037 2537.703, 3345.831 2537.498 C 3344.790 2536.456, 3327.304 2532.010, 3320.566 2531.072 C 3310.651 2529.693, 3303.413 2529.834, 3293.669 2531.594 M 558.637 2539.549 C 553.212 2540.288, 548.561 2541.105, 548.301 2541.365 C 547.757 2541.909, 555.180 2587.674, 556.037 2589.061 C 556.372 2589.602, 559.802 2589.368, 564.391 2588.490 C 586.398 2584.279, 604.306 2589.002, 616.574 2602.253 C 633.622 2620.667, 636.210 2647.441, 622.927 2667.991 C 617.379 2676.575, 608.625 2684.791, 596.364 2692.923 C 576.910 2705.826, 553.864 2715.594, 537.096 2718.046 C 512.554 2721.635, 490.978 2710.767, 479.636 2689.102 C 474.219 2678.756, 472.717 2672.255, 473.165 2661.101 C 473.507 2652.575, 473.958 2650.623, 477.113 2643.988 C 479.091 2639.830, 483.008 2633.951, 485.923 2630.766 C 491.153 2625.053, 491.164 2625.025, 489.335 2622.714 C 483.223 2614.991, 459.606 2588, 458.961 2588 C 457.964 2588, 449.945 2596.910, 444.561 2604 C 438.350 2612.179, 435.381 2617.787, 431.774 2628.158 C 428.578 2637.344, 428.524 2637.792, 428.563 2655 C 428.598 2671.111, 428.817 2673.214, 431.322 2681.500 C 434.714 2692.719, 443.459 2710.944, 449.967 2720.358 C 455.658 2728.589, 467.017 2740.472, 474.430 2745.948 C 485.475 2754.107, 499.472 2760.322, 514.407 2763.696 C 524.184 2765.905, 546.853 2765.841, 557.500 2763.573 C 570.403 2760.825, 588.230 2754.473, 601.045 2748.059 C 639.835 2728.641, 663.117 2702.646, 671.573 2669.310 C 677.876 2644.466, 674.773 2620.471, 661.964 2595 C 648.668 2568.562, 629.672 2550.785, 606.500 2543.098 C 591.348 2538.072, 577.193 2537.022, 558.637 2539.549 M 3160.678 2716.144 C 3150.218 2732.574, 3148.099 2736.510, 3149.178 2737.509 C 3151.114 2739.303, 3349.171 2865.169, 3349.488 2864.807 C 3350.763 2863.349, 3374.988 2824.689, 3374.949 2824.174 C 3374.902 2823.558, 3176.247 2696.914, 3174.332 2696.279 C 3173.874 2696.127, 3167.730 2705.067, 3160.678 2716.144 M 677.597 2746.607 C 653.957 2750.876, 627.192 2764.851, 604.394 2784.828 C 562.035 2821.947, 550.280 2870.771, 572.428 2917.601 C 585.080 2944.354, 607.692 2968.632, 630.500 2979.952 C 646.298 2987.793, 654.011 2989.424, 675.500 2989.465 C 694.659 2989.502, 700.915 2988.527, 714.781 2983.342 C 741.105 2973.499, 772.311 2950.291, 789.017 2928.132 C 798.160 2916.006, 805.838 2898.990, 809.158 2883.500 C 811.256 2873.706, 810.758 2852.089, 808.195 2841.723 C 799.852 2807.985, 773.767 2773.318, 744.869 2757.562 C 724.669 2746.549, 700.085 2742.546, 677.597 2746.607 M 688.500 2794.656 C 669.399 2798.730, 644.543 2814.019, 627.500 2832.178 C 613.438 2847.161, 607.948 2858.705, 607.205 2874.855 C 606.661 2886.687, 607.834 2893.402, 612.097 2902.846 C 623.735 2928.630, 648.076 2944.359, 673.696 2942.651 C 703.485 2940.666, 743.514 2912.642, 758.288 2883.429 C 766.273 2867.639, 766.326 2845.582, 758.416 2829.765 C 744.767 2802.471, 717.070 2788.563, 688.500 2794.656 M 3083.911 2825.184 C 3076.104 2835.185, 3069.668 2843.896, 3069.608 2844.541 C 3069.549 2845.187, 3104.150 2872.605, 3146.500 2905.470 C 3188.850 2938.335, 3223.857 2965.553, 3224.293 2965.955 C 3224.728 2966.356, 3215.362 2979.177, 3203.479 2994.446 C 3191.596 3009.714, 3182.072 3022.405, 3182.314 3022.647 C 3184.622 3024.955, 3213.659 3046.932, 3214.154 3046.746 C 3215.195 3046.355, 3330.006 2898.168, 3329.948 2897.290 C 3329.881 2896.271, 3300.386 2873.572, 3298.743 2873.275 C 3298.059 2873.152, 3288.302 2884.980, 3277.060 2899.560 C 3265.818 2914.141, 3256.143 2926.460, 3255.560 2926.936 C 3254.891 2927.483, 3225.819 2905.531, 3176.715 2867.401 C 3133.933 2834.180, 3098.744 2807, 3098.518 2807 C 3098.292 2807, 3091.719 2815.183, 3083.911 2825.184 M 783.500 2991.131 C 737.850 3037.751, 700.504 3076.255, 700.509 3076.697 C 700.513 3077.139, 708.163 3084.958, 717.509 3094.073 L 734.500 3110.647 767 3077.355 C 784.875 3059.045, 799.725 3044.059, 800 3044.053 C 800.275 3044.047, 815.515 3058.770, 833.866 3076.771 L 867.232 3109.500 834.616 3142.684 C 816.677 3160.935, 802 3176.042, 802 3176.254 C 802 3176.838, 834.949 3209.459, 835.858 3209.775 C 836.582 3210.027, 1002.143 3041.687, 1002.776 3040.054 C 1002.928 3039.663, 995.333 3031.771, 985.898 3022.516 L 968.743 3005.690 957.632 3017.095 C 951.520 3023.368, 935.103 3040.093, 921.150 3054.261 L 895.779 3080.022 877.139 3062.080 C 866.888 3052.212, 851.793 3037.394, 843.595 3029.152 L 828.690 3014.166 855.561 2986.833 C 870.340 2971.800, 886.714 2955.113, 891.947 2949.750 L 901.462 2940 891.481 2929.928 C 885.992 2924.389, 878.125 2916.822, 874 2913.113 L 866.500 2906.369 783.500 2991.131 M 2952.562 2972.596 L 2935.624 2989.095 2948.070 3001.798 C 2954.915 3008.784, 2970.750 3024.872, 2983.258 3037.550 C 2995.766 3050.227, 3006 3060.907, 3006 3061.282 C 3006 3062.870, 3039.117 3217.647, 3039.776 3219.138 C 3040.345 3220.425, 3044.756 3216.649, 3060.332 3201.544 L 3080.164 3182.311 3066.953 3130.118 C 3059.687 3101.411, 3053.970 3077.697, 3054.248 3077.419 C 3054.526 3077.140, 3077.691 3083.007, 3105.726 3090.456 C 3133.761 3097.905, 3157.510 3104, 3158.501 3104 C 3160.269 3104, 3199.927 3065.519, 3198.980 3064.722 C 3198.716 3064.501, 3162.950 3055.934, 3119.500 3045.686 L 3040.500 3027.052 3005.665 2991.526 C 2986.506 2971.987, 2970.531 2956.022, 2970.165 2956.048 C 2969.799 2956.075, 2961.878 2963.521, 2952.562 2972.596 M 2843.487 3177.799 C 2826.184 3183.782, 2813.799 3198.449, 2811.017 3216.250 C 2807.898 3236.205, 2818.710 3256.311, 2837.573 3265.633 C 2844.578 3269.096, 2846.156 3269.476, 2855.001 3269.831 C 2865.343 3270.246, 2872.503 3268.825, 2880.425 3264.783 C 2885.663 3262.111, 2895.557 3252.610, 2898.720 3247.214 C 2906.678 3233.637, 2907.097 3214.940, 2899.765 3200.545 C 2897.111 3195.335, 2887.600 3185.438, 2882.214 3182.280 C 2871.607 3176.062, 2854.300 3174.060, 2843.487 3177.799 M 1062.893 3207.374 C 1052.020 3211.213, 1042.158 3219.359, 1036.713 3229 C 1028.656 3243.265, 1029.166 3263.419, 1037.935 3277.239 C 1047.806 3292.796, 1067.075 3301.746, 1084.750 3298.983 C 1105.539 3295.735, 1121.735 3279.539, 1124.983 3258.750 C 1127.746 3241.075, 1118.796 3221.806, 1103.239 3211.935 C 1091.971 3204.785, 1075.501 3202.924, 1062.893 3207.374 M 2612.437 3222.075 C 2600.922 3227.594, 2591.156 3232.451, 2590.734 3232.870 C 2590.313 3233.289, 2604.092 3263.302, 2621.353 3299.566 C 2638.613 3335.829, 2654.931 3370.900, 2657.614 3377.500 C 2662.197 3388.777, 2662.491 3390.042, 2662.495 3398.500 C 2662.499 3406.347, 2662.140 3408.234, 2659.689 3413.224 C 2655.908 3420.923, 2647.775 3428.042, 2636.413 3433.597 C 2617.102 3443.038, 2602.326 3442.987, 2588.365 3433.430 C 2578.828 3426.901, 2575.304 3420.380, 2530.991 3327.250 C 2517.056 3297.963, 2505.108 3274, 2504.441 3274 C 2503.773 3274, 2493.918 3278.491, 2482.540 3283.981 C 2464.899 3292.492, 2461.940 3294.235, 2462.442 3295.818 C 2463.815 3300.144, 2523.594 3424.462, 2529.127 3434.500 C 2543.167 3459.967, 2553.343 3471.502, 2568.267 3478.871 C 2579.224 3484.281, 2587.939 3486.201, 2601.500 3486.195 C 2613.937 3486.189, 2625.053 3483.725, 2640.123 3477.633 C 2674.877 3463.585, 2695.740 3447.112, 2706.096 3425.543 C 2713.546 3410.027, 2713.919 3392.424, 2707.222 3372.466 C 2705.014 3365.885, 2701.113 3355.615, 2698.555 3349.645 C 2694.840 3340.977, 2634.376 3213.128, 2633.586 3212.271 C 2633.470 3212.145, 2623.953 3216.556, 2612.437 3222.075 M 1304.725 3242.250 C 1304.457 3242.938, 1284.348 3292.492, 1260.039 3352.370 C 1235.730 3412.249, 1216.214 3461.598, 1216.670 3462.035 C 1217.425 3462.758, 1259.292 3480, 1260.291 3480 C 1260.527 3480, 1269.412 3458.512, 1280.037 3432.250 C 1290.661 3405.988, 1299.492 3384.319, 1299.662 3384.098 C 1299.832 3383.876, 1319.440 3391.607, 1343.236 3401.276 C 1372.592 3413.205, 1386.394 3419.281, 1386.171 3420.178 C 1385.991 3420.905, 1377.287 3442.572, 1366.831 3468.326 C 1356.374 3494.081, 1348.007 3515.340, 1348.237 3515.570 C 1348.824 3516.158, 1392.445 3533.889, 1392.693 3533.641 C 1393.257 3533.076, 1482 3313.802, 1482 3312.972 C 1482 3312.437, 1481.888 3311.999, 1481.750 3311.998 C 1481.612 3311.997, 1471.618 3307.967, 1459.540 3303.041 C 1447.463 3298.116, 1437.519 3294.179, 1437.444 3294.293 C 1437.368 3294.407, 1429.518 3313.754, 1419.999 3337.286 C 1410.480 3360.819, 1402.421 3380.240, 1402.091 3380.444 C 1401.760 3380.648, 1382.077 3372.937, 1358.351 3363.308 L 1315.212 3345.801 1328.683 3312.651 C 1347.899 3265.363, 1350.384 3259.043, 1349.916 3258.646 C 1349.207 3258.043, 1306.752 3241, 1305.961 3241 C 1305.550 3241, 1304.994 3241.563, 1304.725 3242.250 M 2389 3316.400 C 2377.175 3320.367, 2367.562 3324.038, 2367.637 3324.557 C 2367.783 3325.564, 2441.073 3550.380, 2441.351 3550.675 C 2441.639 3550.979, 2486.141 3536.192, 2486.741 3535.593 C 2487.057 3535.277, 2470.712 3484.164, 2450.419 3422.009 C 2422.586 3336.758, 2413.152 3309.023, 2412.011 3309.093 C 2411.180 3309.145, 2400.825 3312.433, 2389 3316.400 M 1586.113 3345.067 C 1577.610 3346.576, 1563.197 3351.751, 1555.191 3356.171 C 1526.048 3372.258, 1506.864 3400.938, 1496.575 3443.799 C 1489.041 3475.185, 1490.932 3506.123, 1501.805 3529.325 C 1519.830 3567.789, 1557.521 3590.422, 1603.500 3590.392 C 1630.788 3590.375, 1649.510 3582.709, 1668.093 3563.948 C 1677.170 3554.783, 1690.663 3535.139, 1688.912 3533.638 C 1688.686 3533.443, 1680.625 3528.676, 1671 3523.043 C 1661.375 3517.411, 1652.082 3511.938, 1650.348 3510.880 L 1647.196 3508.958 1643.511 3515.546 C 1639.543 3522.641, 1632.758 3531.425, 1627.666 3536.060 C 1623.259 3540.070, 1612.541 3545.513, 1606.093 3547.015 C 1591.038 3550.522, 1569.821 3544.356, 1558.226 3533.103 C 1541.472 3516.844, 1537.456 3493.511, 1545.061 3456.606 C 1554.845 3409.128, 1575.771 3385.566, 1608 3385.738 C 1629.631 3385.854, 1647.336 3395.931, 1655.871 3412.982 C 1658.154 3417.544, 1660.060 3423.031, 1660.445 3426.151 C 1660.809 3429.093, 1661.343 3432.738, 1661.632 3434.250 L 1662.159 3437 1686.579 3437 L 1711 3437 1710.996 3434.250 C 1710.989 3429.181, 1708.086 3413.566, 1705.937 3407.033 C 1702.772 3397.413, 1698.797 3390.133, 1692.113 3381.723 C 1678.872 3365.060, 1659.964 3353.737, 1634.797 3347.398 C 1626.273 3345.252, 1621.659 3344.745, 1608 3344.458 C 1598.925 3344.267, 1589.076 3344.541, 1586.113 3345.067 M 1766 3380.634 C 1766 3381.532, 1763.960 3435.142, 1761.466 3499.767 C 1758.973 3564.391, 1757.069 3617.402, 1757.235 3617.568 C 1757.624 3617.958, 1801.391 3619.787, 1801.834 3619.433 C 1802.017 3619.286, 1803.694 3579.416, 1805.559 3530.833 C 1807.425 3482.250, 1809.074 3440.700, 1809.225 3438.500 C 1809.399 3435.966, 1816.617 3468.403, 1828.917 3527 C 1839.596 3577.875, 1848.821 3620.013, 1849.417 3620.639 C 1850.124 3621.383, 1858.333 3622.018, 1873.070 3622.469 L 1895.640 3623.159 1916.415 3552.329 C 1927.841 3513.373, 1939.926 3472.167, 1943.271 3460.759 C 1946.615 3449.352, 1949.419 3440.127, 1949.500 3440.259 C 1949.581 3440.392, 1948.060 3481.771, 1946.120 3532.213 C 1944.179 3582.655, 1942.820 3624.153, 1943.099 3624.432 C 1943.552 3624.885, 1987.291 3627.082, 1987.637 3626.669 C 1987.961 3626.282, 1996.846 3388.512, 1996.547 3388.213 C 1996.135 3387.802, 1924.782 3384.884, 1924.403 3385.264 C 1924.249 3385.417, 1913.207 3421.408, 1899.865 3465.242 C 1886.523 3509.076, 1875.521 3544.841, 1875.417 3544.720 C 1875.312 3544.599, 1867.024 3508.050, 1857 3463.500 C 1846.976 3418.950, 1838.638 3382.350, 1838.471 3382.167 C 1838.224 3381.897, 1776.197 3379.123, 1768.250 3379.027 C 1766.824 3379.010, 1766 3379.598, 1766 3380.634 M 2209.641 3492.046 C 2186.068 3495.807, 2166.649 3499.023, 2166.486 3499.192 C 2166.323 3499.362, 2166.764 3502.875, 2167.467 3507 C 2168.169 3511.125, 2169.757 3521.137, 2170.994 3529.250 C 2173.091 3542.998, 2173.390 3544, 2175.402 3544 C 2176.589 3544, 2196.139 3541.075, 2218.847 3537.500 C 2241.555 3533.925, 2260.554 3531, 2261.067 3531 C 2262.481 3531, 2262.317 3529.193, 2258.816 3506.250 C 2256.191 3489.051, 2255.280 3485.020, 2254.037 3485.103 C 2253.191 3485.160, 2233.213 3488.284, 2209.641 3492.046" stroke="none" fill="#ffffff" fill-rule="evenodd"/></svg>