<?xml version="1.0" encoding="iso-8859-1"?>
<!-- Generator: Adobe Illustrator 19.0.0, SVG Export Plug-In . SVG Version: 6.00 Build 0)  -->
<svg version="1.1" id="Capa_1" xmlns="http://www.w3.org/2000/svg" xmlns:xlink="http://www.w3.org/1999/xlink" x="0px" y="0px"
	 viewBox="0 0 512 512" style="enable-background:new 0 0 512 512;" xml:space="preserve">
<g>
	<g>
		<path d="M437.02,74.981C388.667,26.629,324.38,0,256,0S123.333,26.629,74.98,74.981C26.629,123.333,0,187.62,0,256
			s26.629,132.667,74.98,181.019C123.333,485.371,187.62,512,256,512s132.667-26.629,181.02-74.981
			C485.371,388.667,512,324.38,512,256S485.371,123.333,437.02,74.981z M256,482c-60.844,0-116.142-24.177-156.812-63.419
			C121.212,351.287,184.487,305,256,305s134.788,46.287,156.813,113.582C372.142,457.823,316.844,482,256,482z M181,200
			c0-41.355,33.645-75,75-75c41.355,0,75,33.645,75,75s-33.645,75-75,75C214.645,275,181,241.355,181,200z M435.34,393.354
			c-22.07-51.635-65.404-90.869-117.777-108.35C343.863,265.904,361,234.918,361,200c0-57.897-47.103-105-105-105
			c-57.897,0-105,47.103-105,105c0,34.918,17.137,65.904,43.438,85.004c-52.374,17.481-95.708,56.715-117.778,108.35
			C47.414,355.259,30,307.628,30,256C30,131.383,131.383,30,256,30s226,101.383,226,226C482,307.628,464.586,355.259,435.34,393.354
			z"/>
	</g>
</g>
<g>
</g>
<g>
</g>
<g>
</g>
<g>
</g>
<g>
</g>
<g>
</g>
<g>
</g>
<g>
</g>
<g>
</g>
<g>
</g>
<g>
</g>
<g>
</g>
<g>
</g>
<g>
</g>
<g>
</g>
</svg>
